<?xml version="1.0" standalone="no"?>
<!DOCTYPE svg PUBLIC "-//W3C//DTD SVG 20010904//EN"
 "http://www.w3.org/TR/2001/REC-SVG-20010904/DTD/svg10.dtd">
<svg version="1.0" xmlns="http://www.w3.org/2000/svg"
 width="1077.000000pt" height="1280.000000pt" viewBox="0 0 1077.000000 1280.000000"
 preserveAspectRatio="xMidYMid meet">

<g transform="translate(0.000000,1280.000000) scale(0.100000,-0.100000)"
fill="#000000" stroke="none">
<path d="M3583 12404 c-50 -38 -85 -74 -131 -134 -15 -19 -30 -37 -33 -40 -3
-3 -26 -34 -50 -70 -24 -36 -46 -67 -49 -70 -3 -3 -15 -21 -27 -40 -11 -19
-40 -66 -63 -105 -305 -494 -592 -1256 -734 -1945 -102 -501 -156 -1041 -156
-1584 l0 -179 -44 -96 c-51 -112 -109 -266 -132 -348 -38 -137 -48 -179 -89
-373 -24 -113 -57 -257 -74 -320 -17 -63 -34 -126 -37 -140 -4 -14 -10 -29
-14 -35 -4 -5 -10 -23 -14 -40 -4 -16 -22 -70 -41 -120 -99 -269 -136 -383
-166 -500 -29 -119 -32 -144 -33 -290 -1 -163 4 -199 47 -335 74 -236 276
-547 531 -815 l76 -80 0 -65 c0 -59 -14 -178 -39 -335 -19 -122 -101 -395
-158 -530 -62 -146 -85 -193 -199 -420 l-122 -240 -58 -21 c-138 -48 -222
-106 -377 -258 -54 -53 -102 -96 -107 -96 -5 0 -42 69 -84 152 -83 170 -133
238 -173 238 -17 0 -43 16 -74 45 -80 74 -134 70 -175 -13 -11 -24 -32 -53
-45 -65 -115 -102 -134 -371 -58 -827 35 -211 36 -215 87 -410 95 -359 214
-649 360 -874 115 -179 250 -296 339 -296 54 0 95 20 148 71 l40 39 150 -20
c398 -54 988 -90 1175 -72 96 9 124 3 114 -22 -3 -8 6 -26 19 -42 21 -24 33
-28 97 -33 73 -6 74 -6 82 -38 6 -23 16 -35 34 -39 29 -7 119 3 144 16 12 7
20 1 34 -25 32 -59 71 -56 198 18 37 21 71 36 76 33 6 -3 13 -21 16 -41 8 -40
38 -65 79 -65 37 0 103 46 159 111 l45 53 34 -18 c19 -9 50 -25 69 -36 44 -25
96 -25 162 0 29 11 61 20 70 20 10 0 52 -34 95 -75 69 -65 83 -74 116 -75 32
0 44 7 87 52 55 58 45 59 150 -7 69 -45 95 -44 141 1 l38 37 49 -37 c73 -53
97 -49 159 32 l18 23 60 -27 c83 -38 142 -42 179 -13 28 22 28 25 23 86 l-6
64 87 -6 c48 -3 143 -10 212 -16 396 -30 753 -37 929 -19 99 11 174 29 258 62
l52 21 27 -26 c42 -42 84 -51 151 -32 48 14 68 28 128 88 39 40 82 87 95 105
14 19 31 40 38 47 19 21 129 209 172 295 192 381 348 865 429 1330 49 280 41
479 -23 539 -15 15 -26 39 -31 69 -8 56 -55 112 -93 112 -32 0 -78 -29 -124
-77 -20 -21 -58 -59 -85 -85 -26 -26 -73 -84 -103 -127 -30 -44 -60 -80 -66
-81 -5 0 -23 17 -39 37 -82 110 -252 193 -392 193 -48 0 -54 3 -68 30 -23 44
-18 84 24 200 l37 105 65 32 c35 18 78 37 94 42 17 5 80 28 140 51 121 46 298
110 475 172 63 22 125 46 138 54 26 17 29 58 8 125 -8 24 -31 105 -51 179 -37
135 -141 497 -197 685 -44 147 -84 281 -107 358 -24 80 -20 97 22 97 17 0 104
4 192 10 287 18 343 19 937 26 581 7 587 7 606 28 25 28 124 192 212 351 68
124 281 549 313 627 17 40 129 294 152 343 65 139 253 612 323 810 70 199 79
242 58 270 -13 18 -24 20 -138 17 -376 -8 -961 -77 -1333 -158 -38 -8 -113
-24 -165 -35 -233 -47 -615 -149 -860 -229 -30 -10 -100 -32 -155 -50 -55 -17
-113 -37 -130 -45 -16 -7 -70 -27 -120 -43 -139 -47 -496 -191 -571 -230 -45
-23 -124 -55 -128 -51 -2 2 -9 81 -15 174 -16 240 -64 523 -121 715 -13 44 -4
52 80 78 36 11 128 44 205 72 77 28 158 57 180 64 34 11 199 76 270 106 11 5
61 25 110 46 508 209 1092 498 1474 728 51 31 95 56 98 56 2 0 16 9 31 19 15
10 92 62 172 114 334 218 586 437 679 592 39 65 37 79 -20 107 -65 33 -170 40
-464 35 -310 -6 -542 -29 -905 -92 -154 -26 -492 -98 -590 -124 -19 -6 -60
-17 -90 -25 -30 -9 -116 -32 -190 -52 -139 -37 -492 -151 -615 -199 -492 -190
-741 -308 -1122 -531 -51 -30 -96 -54 -100 -54 -4 0 -55 20 -113 43 -175 73
-473 153 -730 197 -123 21 -278 41 -480 62 -255 27 -837 14 -1013 -22 -20 -4
-40 -4 -42 1 -3 5 1 46 10 91 57 293 92 660 136 1398 15 264 26 1142 17 1420
-10 315 -31 445 -80 497 -29 31 -49 29 -105 -13z m75 -1325 l-3 -174 -5 182
c-3 100 -2 179 3 174 4 -4 6 -86 5 -182z m-70 174 c-10 -2 -28 -2 -40 0 -13 2
-5 4 17 4 22 1 32 -1 23 -4z m-135 -20 c-7 -2 -19 -2 -25 0 -7 3 -2 5 12 5 14
0 19 -2 13 -5z m-46 -9 c-3 -3 -12 -4 -19 -1 -8 3 -5 6 6 6 11 1 17 -2 13 -5z
m-48 -8 c-2 -2 -15 -9 -29 -15 -24 -11 -24 -11 -6 3 16 13 49 24 35 12z m-80
-31 c-9 -8 -79 -35 -79 -30 0 3 15 11 33 19 32 15 54 20 46 11z m-90 -39 c-16
-14 -191 -114 -179 -102 18 18 161 104 174 105 5 1 7 -1 5 -3z m-251 -169
c-32 -29 -63 -67 -69 -85 -6 -18 -13 -31 -16 -29 -12 13 31 79 78 120 73 64
78 59 7 -6z m-103 -174 c-9 -15 -13 -19 -10 -8 4 11 10 29 13 40 3 11 7 14 9
8 3 -7 -3 -24 -12 -40z m-24 -74 c-5 -13 -10 -19 -10 -12 -1 15 10 45 15 40 3
-2 0 -15 -5 -28z m836 -86 c-2 -16 -4 -5 -4 22 0 28 2 40 4 28 2 -13 2 -35 0
-50z m-868 -22 c-7 -23 -14 -39 -16 -37 -3 2 1 23 8 45 7 23 14 39 16 37 3 -2
-1 -23 -8 -45z m-39 -118 c-11 -17 -11 -17 -6 0 3 10 6 24 7 30 0 9 2 9 5 0 3
-7 0 -20 -6 -30z m-13 -55 c-3 -8 -6 -5 -6 6 -1 11 2 17 5 13 3 -3 4 -12 1
-19z m910 -75 c-2 -16 -4 -3 -4 27 0 30 2 43 4 28 2 -16 2 -40 0 -55z m-927
20 c-11 -17 -11 -17 -6 0 3 10 6 24 7 30 0 9 2 9 5 0 3 -7 0 -20 -6 -30z m917
-150 c-2 -21 -4 -6 -4 32 0 39 2 55 4 38 2 -18 2 -50 0 -70z m-940 55 c-3 -7
-5 -2 -5 12 0 14 2 19 5 13 2 -7 2 -19 0 -25z m-23 -92 c-9 -37 -18 -65 -21
-63 -2 3 4 34 13 71 9 37 18 65 21 63 2 -3 -4 -34 -13 -71z m-35 -150 c-7 -36
-14 -64 -17 -61 -2 2 1 34 8 70 7 36 14 64 17 62 2 -3 -2 -34 -8 -71z m988 42
c-3 -8 -6 -5 -6 6 -1 11 2 17 5 13 3 -3 4 -12 1 -19z m-10 -150 c-3 -7 -5 -2
-5 12 0 14 2 19 5 13 2 -7 2 -19 0 -25z m-1010 -40 c-3 -7 -5 -2 -5 12 0 14 2
19 5 13 2 -7 2 -19 0 -25z m1000 -80 c-2 -18 -4 -6 -4 27 0 33 2 48 4 33 2
-15 2 -42 0 -60z m-1010 30 c-3 -7 -5 -2 -5 12 0 14 2 19 5 13 2 -7 2 -19 0
-25z m-10 -40 c-3 -8 -6 -5 -6 6 -1 11 2 17 5 13 3 -3 4 -12 1 -19z m-17 -123
c-7 -41 -15 -73 -17 -71 -3 2 1 38 8 80 7 41 15 73 17 71 3 -3 -1 -39 -8 -80z
m1027 18 c-3 -10 -5 -4 -5 12 0 17 2 24 5 18 2 -7 2 -21 0 -30z m-12 -133 c-4
-39 -9 -69 -12 -67 -2 3 -1 37 3 76 3 40 9 70 11 67 3 -3 2 -37 -2 -76z m5361
-3 l1 -57 -4 54 -4 55 -37 4 -37 4 40 -1 40 -1 1 -58z m-93 46 c-7 -2 -19 -2
-25 0 -7 3 -2 5 12 5 14 0 19 -2 13 -5z m-60 -10 c-7 -2 -19 -2 -25 0 -7 3 -2
5 12 5 14 0 19 -2 13 -5z m-50 -10 c-7 -2 -21 -2 -30 0 -10 3 -4 5 12 5 17 0
24 -2 18 -5z m-6196 -65 c-2 -13 -4 -3 -4 22 0 25 2 35 4 23 2 -13 2 -33 0
-45z m6136 55 c-7 -2 -21 -2 -30 0 -10 3 -4 5 12 5 17 0 24 -2 18 -5z m-60
-10 c-7 -2 -19 -2 -25 0 -7 3 -2 5 12 5 14 0 19 -2 13 -5z m-50 -10 c-7 -2
-19 -2 -25 0 -7 3 -2 5 12 5 14 0 19 -2 13 -5z m-50 -10 c-7 -2 -19 -2 -25 0
-7 3 -2 5 12 5 14 0 19 -2 13 -5z m-56 -9 c-3 -3 -12 -4 -19 -1 -8 3 -5 6 6 6
11 1 17 -2 13 -5z m-57 -14 c-14 -4 -34 -8 -45 -8 -16 0 -15 2 5 8 14 4 34 8
45 8 16 0 15 -2 -5 -8z m-140 -30 c-8 -5 -24 -9 -35 -9 -16 1 -16 2 5 9 35 11
48 11 30 0z m-5736 -59 c-4 -28 -9 -50 -11 -47 -3 3 -2 28 2 56 4 28 9 49 12
47 2 -3 1 -28 -3 -56z m6423 -38 c-2 -21 -4 -6 -4 32 0 39 2 55 4 38 2 -18 2
-50 0 -70z m-5390 25 c-2 -13 -4 -3 -4 22 0 25 2 35 4 23 2 -13 2 -33 0 -45z
m4560 36 c-3 -3 -12 -4 -19 -1 -8 3 -5 6 6 6 11 1 17 -2 13 -5z m-38 -8 c-2
-2 -17 -6 -34 -10 -22 -5 -26 -4 -15 4 14 9 59 15 49 6z m-99 -25 c-8 -5 -31
-11 -50 -14 -35 -6 -35 -6 5 8 46 15 67 18 45 6z m-105 -31 c-11 -5 -27 -9
-35 -9 -9 0 -8 4 5 9 11 5 27 9 35 9 9 0 8 -4 -5 -9z m-5368 -72 c-2 -13 -4
-5 -4 17 -1 22 1 32 4 23 2 -10 2 -28 0 -40z m5258 42 c-27 -12 -43 -12 -25 0
8 5 22 9 30 9 10 0 8 -3 -5 -9z m-4218 -32 c-3 -7 -5 -2 -5 12 0 14 2 19 5 13
2 -7 2 -19 0 -25z m4104 -4 c-41 -14 -76 -23 -78 -20 -5 5 116 44 137 44 8 0
-18 -11 -59 -24z m1296 -16 c-3 -7 -5 -2 -5 12 0 14 2 19 5 13 2 -7 2 -19 0
-25z m-5410 -45 c-3 -10 -5 -2 -5 17 0 19 2 27 5 18 2 -10 2 -26 0 -35z m4020
31 c-3 -3 -12 -4 -19 -1 -8 3 -5 6 6 6 11 1 17 -2 13 -5z m1380 -66 c-2 -13
-4 -5 -4 17 -1 22 1 32 4 23 2 -10 2 -28 0 -40z m-6440 -15 c-3 -10 -5 -2 -5
17 0 19 2 27 5 18 2 -10 2 -26 0 -35z m4893 27 c-8 -5 -19 -10 -25 -10 -5 0
-3 5 5 10 8 5 20 10 25 10 6 0 3 -5 -5 -10z m-3863 -32 c-3 -8 -6 -5 -6 6 -1
11 2 17 5 13 3 -3 4 -12 1 -19z m-1040 -70 c-2 -13 -4 -5 -4 17 -1 22 1 32 4
23 2 -10 2 -28 0 -40z m4733 38 c-27 -14 -89 -31 -79 -22 7 7 81 34 94 35 6 0
-1 -6 -15 -13z m-100 -36 c-8 -5 -19 -10 -25 -10 -5 0 -3 5 5 10 8 5 20 10 25
10 6 0 3 -5 -5 -10z m-3613 -42 c-3 -8 -6 -5 -6 6 -1 11 2 17 5 13 3 -3 4 -12
1 -19z m3518 2 c-22 -10 -44 -18 -50 -18 -5 0 8 8 30 19 22 10 45 18 50 18 6
0 -8 -9 -30 -19z m-3528 -42 c-3 -8 -6 -5 -6 6 -1 11 2 17 5 13 3 -3 4 -12 1
-19z m3463 18 c0 -2 -39 -21 -87 -41 -49 -20 -104 -44 -123 -52 -19 -8 -31
-11 -27 -7 8 9 217 102 230 103 4 1 7 -1 7 -3z m1910 -90 c-18 -42 -36 -78
-41 -81 -9 -6 -8 -2 29 78 12 27 25 61 29 75 3 15 8 22 10 15 2 -6 -10 -46
-27 -87z m-6393 17 c-3 -10 -5 -4 -5 12 0 17 2 24 5 18 2 -7 2 -21 0 -30z
m997 -37 c-6 -17 -50 -33 -61 -22 -4 3 3 6 15 6 12 0 27 9 34 20 14 22 21 20
12 -4z m3186 -26 c-30 -16 -59 -29 -65 -29 -5 0 15 13 45 29 30 16 60 29 65
29 6 0 -15 -13 -45 -29z m-3283 -16 c-3 -3 -12 -4 -19 -1 -8 3 -5 6 6 6 11 1
17 -2 13 -5z m-47 -14 c-8 -5 -19 -10 -25 -10 -5 0 -3 5 5 10 8 5 20 10 25 10
6 0 3 -5 -5 -10z m1013 3 c-68 -2 -178 -2 -245 0 -68 1 -13 3 122 3 135 0 190
-2 123 -3z m-470 -10 c-7 -2 -19 -2 -25 0 -7 3 -2 5 12 5 14 0 19 -2 13 -5z
m750 0 c-7 -2 -21 -2 -30 0 -10 3 -4 5 12 5 17 0 24 -2 18 -5z m1957 2 c0 -3
-35 -22 -77 -43 -43 -22 -94 -49 -113 -60 -19 -12 -39 -22 -45 -22 -14 0 47
36 145 86 94 48 90 46 90 39z m-4113 -87 c-2 -18 -4 -6 -4 27 0 33 2 48 4 33
2 -15 2 -42 0 -60z m1316 75 c-7 -2 -19 -2 -25 0 -7 3 -2 5 12 5 14 0 19 -2
13 -5z m940 0 c-7 -2 -19 -2 -25 0 -7 3 -2 5 12 5 14 0 19 -2 13 -5z m-990
-10 c-7 -2 -21 -2 -30 0 -10 3 -4 5 12 5 17 0 24 -2 18 -5z m1054 1 c-3 -3
-12 -4 -19 -1 -8 3 -5 6 6 6 11 1 17 -2 13 -5z m4022 -16 c-21 -41 -61 -88
-73 -87 -8 0 -7 2 1 5 6 3 26 27 43 55 33 50 50 66 29 27z m-5570 9 c-17 -14
-98 -54 -94 -46 7 10 75 48 89 49 5 0 7 -1 5 -3z m1664 -4 c-7 -2 -21 -2 -30
0 -10 3 -4 5 12 5 17 0 24 -2 18 -5z m-1313 -13 c-14 -4 -34 -8 -45 -8 -16 0
-15 2 5 8 14 4 34 8 45 8 16 0 15 -2 -5 -8z m1383 3 c-7 -2 -21 -2 -30 0 -10
3 -4 5 12 5 17 0 24 -2 18 -5z m60 -10 c-7 -2 -21 -2 -30 0 -10 3 -4 5 12 5
17 0 24 -2 18 -5z m-1520 -10 c-7 -2 -19 -2 -25 0 -7 3 -2 5 12 5 14 0 19 -2
13 -5z m1580 0 c-7 -2 -21 -2 -30 0 -10 3 -4 5 12 5 17 0 24 -2 18 -5z m-1626
-9 c-3 -3 -12 -4 -19 -1 -8 3 -5 6 6 6 11 1 17 -2 13 -5z m1748 -8 c33 -8 51
-14 40 -15 -11 0 -47 6 -80 13 -33 8 -51 14 -40 15 11 0 47 -6 80 -13z m-1788
-2 c-3 -3 -12 -4 -19 -1 -8 3 -5 6 6 6 11 1 17 -2 13 -5z m-57 -14 c-34 -11
-60 -11 -35 0 11 5 29 8 40 8 16 0 15 -2 -5 -8z m-176 -36 c22 4 27 3 16 -4
-24 -16 -59 -11 -70 9 -16 30 -12 38 6 12 13 -19 23 -22 48 -17z m2113 30 c-3
-3 -12 -4 -19 -1 -8 3 -5 6 6 6 11 1 17 -2 13 -5z m-2004 -11 c-7 -2 -19 -2
-25 0 -7 3 -2 5 12 5 14 0 19 -2 13 -5z m2050 0 c-7 -2 -19 -2 -25 0 -7 3 -2
5 12 5 14 0 19 -2 13 -5z m44 -9 c-3 -3 -12 -4 -19 -1 -8 3 -5 6 6 6 11 1 17
-2 13 -5z m80 -20 c-3 -3 -12 -4 -19 -1 -8 3 -5 6 6 6 11 1 17 -2 13 -5z
m3213 -5 c-20 -13 -129 -71 -155 -82 -37 -15 -4 7 73 49 71 39 118 58 82 33z
m-3112 -20 c23 -7 40 -14 38 -16 -5 -5 -116 27 -116 33 0 3 8 3 18 0 9 -2 36
-10 60 -17z m722 17 c0 -4 -146 -88 -165 -95 -22 -7 43 36 100 66 64 35 65 35
65 29z m-3843 -98 c-2 -18 -4 -6 -4 27 0 33 2 48 4 33 2 -15 2 -42 0 -60z
m3228 47 c39 -17 21 -18 -25 0 -19 7 -28 14 -20 14 8 0 29 -6 45 -14z m105
-35 c8 -5 11 -10 5 -10 -5 0 -17 5 -25 10 -8 5 -10 10 -5 10 6 0 17 -5 25 -10z
m2720 -4 c0 -2 -7 -7 -16 -10 -8 -3 -12 -2 -9 4 6 10 25 14 25 6z m-2645 -27
c6 -6 3 -15 -8 -24 -9 -8 -12 -10 -7 -3 15 18 12 28 -9 28 -11 0 -23 5 -27 11
-8 13 35 3 51 -12z m2605 7 c0 -2 -7 -7 -16 -10 -8 -3 -12 -2 -9 4 6 10 25 14
25 6z m-2380 -11 c0 -2 -10 -9 -22 -15 -22 -11 -22 -10 -4 4 21 17 26 19 26
11z m2310 -25 c-19 -11 -39 -19 -45 -19 -5 0 6 8 25 19 19 11 40 19 45 19 6 0
-6 -8 -25 -19z m-5724 0 c-16 -5 -42 -21 -57 -36 -16 -15 -29 -23 -29 -16 0
16 71 62 95 61 14 0 12 -3 -9 -9z m3354 -15 c-7 -8 -17 -15 -22 -15 -6 0 -23
-9 -39 -21 -16 -11 -29 -18 -29 -14 0 5 90 65 98 65 3 0 -1 -7 -8 -15z m-218
-25 c-12 -12 -22 -18 -22 -14 0 10 34 42 39 38 3 -2 -5 -13 -17 -24z m2508 0
c-24 -19 -40 -25 -40 -15 0 5 51 34 60 34 3 0 -6 -8 -20 -19z m-2554 -48 c-17
-16 -18 -16 -5 5 7 12 15 20 18 17 3 -2 -3 -12 -13 -22z m2504 24 c0 -2 -7 -7
-16 -10 -8 -3 -12 -2 -9 4 6 10 25 14 25 6z m-5724 -43 c-20 -21 -47 -53 -59
-70 -12 -18 -26 -33 -30 -33 -5 0 9 21 29 48 58 72 77 92 87 92 5 0 -7 -17
-27 -37z m132 6 c-40 -54 -62 -84 -117 -165 -29 -44 -58 -83 -64 -89 -16 -16
1 13 57 94 28 40 56 81 61 90 15 26 76 101 82 101 2 0 -6 -14 -19 -31z m3252
27 c0 -2 -30 -28 -67 -57 -38 -29 -61 -45 -53 -34 12 15 109 92 118 94 1 1 2
-1 2 -3z m2290 -11 c0 -6 -97 -55 -107 -55 -4 1 17 14 47 30 61 32 60 32 60
25z m-2470 -29 c0 -2 -7 -9 -15 -16 -13 -11 -14 -10 -9 4 5 14 24 23 24 12z
m2350 -30 c0 -8 -63 -36 -68 -31 -3 2 10 11 29 19 39 17 39 17 39 12z m-2320
-51 c-7 -8 -17 -15 -23 -15 -6 0 -2 7 9 15 25 19 30 19 14 0z m2185 -15 c-33
-16 -64 -28 -70 -28 -5 0 17 13 50 28 33 16 65 29 70 29 6 0 -17 -13 -50 -29z
m-2230 2 c-3 -3 -11 0 -18 7 -9 10 -8 11 6 5 10 -3 15 -9 12 -12z m2101 -59
c-41 -21 -103 -47 -94 -38 10 10 101 53 113 54 6 0 -3 -7 -19 -16z m-116 -53
c-8 -5 -19 -10 -25 -10 -5 0 -3 5 5 10 8 5 20 10 25 10 6 0 3 -5 -5 -10z m-95
-39 c-6 -5 -37 -18 -70 -30 -33 -13 -55 -18 -50 -13 8 8 110 50 125 51 2 1 0
-3 -5 -8z m-5204 -137 c-16 -33 -30 -56 -31 -52 0 11 53 118 58 114 2 -2 -10
-30 -27 -62z m4988 52 c-8 -8 -163 -66 -174 -65 -5 0 28 15 75 34 80 32 109
41 99 31z m-194 -76 c-3 -5 -11 -10 -16 -10 -6 0 -7 5 -4 10 3 6 11 10 16 10
6 0 7 -4 4 -10z m-45 -20 c-8 -5 -24 -9 -35 -9 -16 1 -16 2 5 9 35 11 48 11
30 0z m-4792 -50 c-5 -17 -15 -33 -21 -37 -5 -3 -7 -2 -4 4 4 6 11 22 16 37
14 36 22 33 9 -4z m4702 21 c-8 -5 -26 -11 -40 -15 -21 -5 -20 -3 5 9 32 15
60 20 35 6z m-110 -40 c-8 -5 -26 -11 -40 -15 -21 -5 -20 -3 5 9 32 15 60 20
35 6z m-85 -31 c-27 -12 -43 -12 -25 0 8 5 22 9 30 9 10 0 8 -3 -5 -9z m-4544
-37 c-12 -20 -14 -14 -5 12 4 9 9 14 11 11 3 -2 0 -13 -6 -23z m4466 11 c-3
-3 -12 -4 -19 -1 -8 3 -5 6 6 6 11 1 17 -2 13 -5z m-66 -20 c-18 -8 -47 -17
-65 -20 -22 -3 -17 1 19 14 59 23 95 27 46 6z m-4416 -41 c-3 -16 -10 -32 -15
-37 -5 -5 -4 7 2 27 13 43 23 50 13 10z m4300 8 c-11 -5 -36 -11 -55 -14 -35
-6 -34 -6 5 8 43 14 84 19 50 6z m-98 -27 c-3 -3 -12 -4 -19 -1 -8 3 -5 6 6 6
11 1 17 -2 13 -5z m-40 -10 c-3 -3 -12 -4 -19 -1 -8 3 -5 6 6 6 11 1 17 -2 13
-5z m-60 -16 c-40 -14 -33 -47 13 -65 32 -12 32 -13 5 -7 -38 7 -55 21 -55 45
0 19 25 39 50 38 8 0 2 -5 -13 -11z m-4130 -30 c-3 -8 -6 -5 -6 6 -1 11 2 17
5 13 3 -3 4 -12 1 -19z m-16 -49 c-5 -13 -10 -19 -10 -12 -1 15 10 45 15 40 3
-2 0 -15 -5 -28z m4392 -7 c7 -38 3 -37 -14 2 -11 24 -12 33 -3 29 6 -2 14
-16 17 -31z m-70 21 c-7 -2 -19 -2 -25 0 -7 3 -2 5 12 5 14 0 19 -2 13 -5z
m-4336 -65 c-3 -8 -6 -5 -6 6 -1 11 2 17 5 13 3 -3 4 -12 1 -19z m-23 -82 c-3
-15 -8 -25 -11 -23 -2 3 -1 17 3 31 3 15 8 25 11 23 2 -3 1 -17 -3 -31z m609
27 c-7 -2 -21 -2 -30 0 -10 3 -4 5 12 5 17 0 24 -2 18 -5z m-90 -10 c-7 -2
-21 -2 -30 0 -10 3 -4 5 12 5 17 0 24 -2 18 -5z m193 -4 c24 -6 47 -16 51 -22
4 -7 0 -8 -13 -2 -10 4 -41 13 -69 20 -27 8 -42 14 -32 14 10 1 38 -4 63 -10z
m-256 -9 c-8 -5 -19 -10 -25 -10 -5 0 -3 5 5 10 8 5 20 10 25 10 6 0 3 -5 -5
-10z m4018 -60 c0 -22 -1 -22 -8 5 -4 17 -8 39 -8 50 0 16 2 15 8 -5 4 -14 8
-36 8 -50z m-4118 14 c-25 -14 -63 -42 -84 -62 -21 -20 -35 -30 -30 -22 17 30
125 110 149 110 6 0 -10 -12 -35 -26z m7658 19 c-21 -2 -57 -2 -80 0 -24 2 -7
4 37 4 44 0 63 -2 43 -4z m99 1 c-3 -3 -12 -4 -19 -1 -8 3 -5 6 6 6 11 1 17
-2 13 -5z m43 -11 c0 -10 -4 -14 -8 -8 -4 6 -11 13 -16 18 -5 4 -2 7 7 7 10 0
17 -8 17 -17z m-7255 -74 c39 -42 83 -109 71 -109 -3 0 -13 14 -21 31 -18 33
-81 101 -130 138 l-30 22 33 -18 c19 -10 53 -39 77 -64z m6968 74 c-13 -2 -35
-2 -50 0 -16 2 -5 4 22 4 28 0 40 -2 28 -4z m-150 -10 c-7 -2 -21 -2 -30 0
-10 3 -4 5 12 5 17 0 24 -2 18 -5z m-105 -10 c-10 -2 -26 -2 -35 0 -10 3 -2 5
17 5 19 0 27 -2 18 -5z m-70 -10 c-10 -2 -26 -2 -35 0 -10 3 -2 5 17 5 19 0
27 -2 18 -5z m577 -73 c-13 -36 -24 -60 -24 -54 -1 17 42 139 46 129 1 -6 -8
-39 -22 -75z m-667 63 c-10 -2 -28 -2 -40 0 -13 2 -5 4 17 4 22 1 32 -1 23 -4z
m-103 -13 c-16 -4 -43 -8 -60 -8 -29 1 -29 1 5 8 19 4 46 7 60 8 22 0 22 -1
-5 -8z m-7378 -32 c-3 -7 -5 -2 -5 12 0 14 2 19 5 13 2 -7 2 -19 0 -25z m4510
0 c-3 -7 -5 -2 -5 12 0 14 2 19 5 13 2 -7 2 -19 0 -25z m2761 15 c-10 -2 -26
-2 -35 0 -10 3 -2 5 17 5 19 0 27 -2 18 -5z m-6515 -22 c9 -10 6 -10 -16 -2
-36 14 -92 14 -120 0 -22 -10 -22 -10 -2 6 23 19 118 16 138 -4z m6432 9 c-16
-4 -43 -8 -60 -8 -29 1 -29 1 5 8 19 4 46 7 60 8 22 0 22 -1 -5 -8z m-3958 -6
c-3 -3 -12 -4 -19 -1 -8 3 -5 6 6 6 11 1 17 -2 13 -5z m136 -1 c-7 -2 -19 -2
-25 0 -7 3 -2 5 12 5 14 0 19 -2 13 -5z m-186 -9 c-3 -3 -12 -4 -19 -1 -8 3
-5 6 6 6 11 1 17 -2 13 -5z m230 0 c-3 -3 -12 -4 -19 -1 -8 3 -5 6 6 6 11 1
17 -2 13 -5z m3670 0 c-3 -3 -12 -4 -19 -1 -8 3 -5 6 6 6 11 1 17 -2 13 -5z
m-6514 -45 c-15 -23 -30 -62 -34 -88 l-6 -46 -2 39 c-1 38 42 136 61 136 4 0
-4 -19 -19 -41z m228 24 c13 -16 12 -17 -3 -4 -10 7 -18 15 -18 17 0 8 8 3 21
-13z m3726 -5 c-3 -8 -6 -5 -6 6 -1 11 2 17 5 13 3 -3 4 -12 1 -19z m2490 16
c-3 -3 -12 -4 -19 -1 -8 3 -5 6 6 6 11 1 17 -2 13 -5z m-6779 -51 c-41 -62
-58 -79 -28 -28 22 39 50 75 56 75 2 0 -11 -21 -28 -47z m2826 12 c-76 -45
-145 -119 -184 -198 -17 -34 -28 -51 -24 -37 9 38 52 108 93 153 35 40 144
117 164 117 6 0 -16 -16 -49 -35z m448 14 c46 -23 129 -98 161 -144 11 -16 -7
0 -40 36 -35 37 -86 79 -120 97 -64 35 -66 44 -1 11z m3461 14 c-7 -2 -19 -2
-25 0 -7 3 -2 5 12 5 14 0 19 -2 13 -5z m-50 -10 c-7 -2 -19 -2 -25 0 -7 3 -2
5 12 5 14 0 19 -2 13 -5z m-68 -13 c-16 -4 -39 -8 -50 -8 -16 0 -15 2 5 8 14
4 36 8 50 8 22 0 22 -1 -5 -8z m-6868 -32 c-3 -7 -5 -2 -5 12 0 14 2 19 5 13
2 -7 2 -19 0 -25z m4550 -15 c-3 -10 -5 -4 -5 12 0 17 2 24 5 18 2 -7 2 -21 0
-30z m2236 30 c-7 -2 -19 -2 -25 0 -7 3 -2 5 12 5 14 0 19 -2 13 -5z m-5935
-34 c-3 -8 -7 -3 -11 10 -4 17 -3 21 5 13 5 -5 8 -16 6 -23z m5832 11 c-14 -4
-36 -8 -50 -8 -22 0 -22 1 5 8 17 4 39 8 50 8 16 0 15 -2 -5 -8z m-5626 -86
l6 -39 -13 42 c-6 23 -15 45 -19 49 -5 4 -8 12 -8 18 0 25 29 -34 34 -70z
m-1073 20 c-5 -21 -9 -30 -10 -19 -1 24 10 67 15 62 3 -2 0 -22 -5 -43z m3332
39 c-7 -2 -21 -2 -30 0 -10 3 -4 5 12 5 17 0 24 -2 18 -5z m3222 -3 c-11 -5
-27 -9 -35 -9 -9 0 -8 4 5 9 11 5 27 9 35 9 9 0 8 -4 -5 -9z m1587 -12 c-7 -7
-12 -8 -12 -2 0 14 12 26 19 19 2 -3 -1 -11 -7 -17z m-3565 -25 c-3 -10 -5 -4
-5 12 0 17 2 24 5 18 2 -7 2 -21 0 -30z m1898 18 c-12 -10 -106 -34 -112 -28
-3 4 68 25 117 36 2 1 0 -3 -5 -8z m-6260 -41 c-9 -41 -17 -33 -9 9 4 17 9 30
11 27 3 -2 2 -19 -2 -36z m2985 26 c0 -2 -8 -10 -17 -17 -16 -13 -17 -12 -4 4
13 16 21 21 21 13z m4915 -43 c-9 -15 -13 -19 -10 -8 4 11 10 29 13 40 3 11 7
14 9 8 3 -7 -3 -24 -12 -40z m-1770 21 c-30 -12 -195 -51 -188 -44 9 9 160 49
183 49 8 0 11 -2 5 -5z m-1747 -119 c0 -22 -3 -18 -9 15 -4 25 -7 59 -7 75 0
22 3 18 9 -15 4 -25 7 -58 7 -75z m-4008 70 c0 -5 -5 -3 -10 5 -5 8 -10 20
-10 25 0 6 5 3 10 -5 5 -8 10 -19 10 -25z m261 12 c-10 -9 -11 -8 -5 6 3 10 9
15 12 12 3 -3 0 -11 -7 -18z m-864 -19 c-3 -7 -5 -2 -5 12 0 14 2 19 5 13 2
-7 2 -19 0 -25z m210 -20 c-3 -7 -5 -2 -5 12 0 14 2 19 5 13 2 -7 2 -19 0 -25z
m890 -45 c-2 -16 -4 -3 -4 27 0 30 2 43 4 28 2 -16 2 -40 0 -55z m2676 -1 c9
-23 17 -48 16 -55 0 -6 -9 13 -21 43 -11 30 -24 59 -29 65 -5 5 -9 14 -9 19 0
17 25 -25 43 -72z m-2953 38 c-19 -17 -38 -30 -44 -30 -9 0 64 58 74 59 3 0
-11 -13 -30 -29z m-150 -23 c13 -5 13 -6 -1 -6 -8 -1 -26 11 -40 27 l-24 27
25 -21 c14 -12 32 -24 40 -27z m2487 -4 c-3 -10 -5 -2 -5 17 0 19 2 27 5 18 2
-10 2 -26 0 -35z m2940 41 c-3 -3 -12 -4 -19 -1 -8 3 -5 6 6 6 11 1 17 -2 13
-5z m-6117 -61 c-11 -17 -11 -17 -6 0 3 10 7 28 7 40 2 22 2 22 6 0 2 -12 -1
-30 -7 -40z m8106 10 c-8 -15 -15 -25 -16 -21 0 12 23 58 27 54 3 -2 -2 -17
-11 -33z m-2106 17 c-8 -5 -22 -9 -30 -9 -10 0 -8 3 5 9 27 12 43 12 25 0z
m-2513 -22 c-3 -8 -6 -5 -6 6 -1 11 2 17 5 13 3 -3 4 -12 1 -19z m-2719 5
c-10 -2 -28 -2 -40 0 -13 2 -5 4 17 4 22 1 32 -1 23 -4z m5137 -13 c-27 -12
-43 -12 -25 0 8 5 22 9 30 9 10 0 8 -3 -5 -9z m-5688 -37 c-3 -10 -5 -4 -5 12
0 17 2 24 5 18 2 -7 2 -21 0 -30z m5623 17 c-8 -5 -22 -9 -30 -9 -10 0 -8 3 5
9 27 12 43 12 25 0z m-4723 -32 c-3 -7 -5 -2 -5 12 0 14 2 19 5 13 2 -7 2 -19
0 -25z m2083 7 c14 -19 14 -19 -2 -6 -10 7 -18 18 -18 24 0 6 1 8 3 6 1 -2 9
-13 17 -24z m-303 -67 c-2 -13 -4 -3 -4 22 0 25 2 35 4 23 2 -13 2 -33 0 -45z
m1740 -30 c-2 -18 -4 -4 -4 32 0 36 2 50 4 33 2 -18 2 -48 0 -65z m1078 82
c-3 -5 -12 -10 -18 -10 -7 0 -6 4 3 10 19 12 23 12 15 0z m2356 -17 c-12 -20
-14 -14 -5 12 4 9 9 14 11 11 3 -2 0 -13 -6 -23z m-7844 -20 c-3 -10 -5 -4 -5
12 0 17 2 24 5 18 2 -7 2 -21 0 -30z m3018 7 c10 -11 16 -20 13 -20 -3 0 -13
9 -23 20 -10 11 -16 20 -13 20 3 0 13 -9 23 -20z m2415 10 c-8 -5 -19 -10 -25
-10 -5 0 -3 5 5 10 8 5 20 10 25 10 6 0 3 -5 -5 -10z m-4570 -81 c-13 -33 -26
-62 -31 -64 -4 -3 3 22 17 55 13 33 24 68 25 77 0 12 2 13 6 5 3 -7 -5 -40
-17 -73z m2325 61 c-3 -5 -12 -10 -18 -10 -7 0 -6 4 3 10 19 12 23 12 15 0z
m2205 6 c0 -6 -93 -37 -97 -32 -2 2 15 11 39 19 47 17 58 19 58 13z m-5653
-28 c-3 -8 -6 -5 -6 6 -1 11 2 17 5 13 3 -3 4 -12 1 -19z m8066 -50 c-26 -66
-41 -91 -28 -48 12 38 44 110 49 110 3 0 -7 -28 -21 -62z m-2563 23 c-8 -5
-26 -11 -40 -15 -21 -5 -20 -3 5 9 32 15 60 20 35 6z m-5194 -70 c25 -55 24
-70 -1 -21 -20 39 -38 86 -30 78 4 -4 18 -30 31 -57z m2621 -3 c-2 -13 -4 -3
-4 22 0 25 2 35 4 23 2 -13 2 -33 0 -45z m-2962 -29 c-9 -28 -19 -48 -21 -46
-2 2 3 23 11 47 8 23 16 52 16 64 1 17 2 18 6 3 2 -9 -3 -40 -12 -68z m3882
59 c-3 -8 -6 -5 -6 6 -1 11 2 17 5 13 3 -3 4 -12 1 -19z m1548 2 c-3 -5 -14
-10 -23 -9 -14 0 -13 2 3 9 27 11 27 11 20 0z m-50 -19 c-6 -5 -23 -12 -40
-16 l-30 -6 30 15 c35 17 53 20 40 7z m-1515 -68 c-11 -17 -11 -17 -6 0 3 10
7 28 7 40 2 22 2 22 6 0 2 -12 -1 -30 -7 -40z m847 -196 c-1 -45 -3 -5 -3 88
0 94 2 130 3 82 2 -48 2 -125 0 -170z m573 228 c-14 -8 -29 -14 -35 -14 -5 0
1 6 15 14 14 8 30 14 35 14 6 0 -1 -6 -15 -14z m-4170 1 c0 -2 -8 -10 -17 -17
-16 -13 -17 -12 -4 4 13 16 21 21 21 13z m643 -13 c-13 -2 -35 -2 -50 0 -16 2
-5 4 22 4 28 0 40 -2 28 -4z m-103 -21 c-31 -25 -20 -71 29 -123 21 -21 35
-39 31 -39 -21 0 -90 97 -90 127 0 22 24 53 42 53 6 0 0 -8 -12 -18z m157 12
c-3 -3 -12 -4 -19 -1 -8 3 -5 6 6 6 11 1 17 -2 13 -5z m3393 -14 c-8 -5 -19
-10 -25 -10 -5 0 -3 5 5 10 8 5 20 10 25 10 6 0 3 -5 -5 -10z m-4135 -23 c-18
-28 -94 -91 -101 -84 -3 2 7 12 21 21 13 9 39 32 57 51 36 41 45 45 23 12z
m825 3 c6 -11 8 -20 6 -20 -3 0 -10 9 -16 20 -6 11 -8 20 -6 20 3 0 10 -9 16
-20z m6153 5 c-3 -9 -8 -14 -10 -11 -3 3 -2 9 2 15 9 16 15 13 8 -4z m-7559
-89 c21 -14 34 -26 28 -26 -13 0 -101 70 -127 101 -11 13 -2 8 20 -13 22 -20
58 -48 79 -62z m2515 39 c0 -5 -6 1 -14 15 -8 14 -14 30 -14 35 0 6 6 -1 14
-15 8 -14 14 -29 14 -35z m2146 45 c-3 -5 -12 -10 -18 -10 -7 0 -6 4 3 10 19
12 23 12 15 0z m-1304 -34 c-14 -36 -22 -33 -9 5 6 16 12 28 14 26 3 -2 0 -16
-5 -31z m-3874 2 c-3 -8 -6 -5 -6 6 -1 11 2 17 5 13 3 -3 4 -12 1 -19z m5088
-8 c-33 -16 -64 -29 -70 -29 -13 1 107 57 120 57 6 0 -17 -13 -50 -28z m-5116
-79 c-12 -34 -23 -60 -25 -58 -2 2 6 32 17 66 12 34 23 60 25 58 2 -2 -6 -32
-17 -66z m8072 42 c-12 -20 -14 -14 -5 12 4 9 9 14 11 11 3 -2 0 -13 -6 -23z
m-6121 14 c0 -2 -12 -14 -27 -28 l-28 -24 24 28 c23 25 31 32 31 24z m1160
-61 c23 -30 24 -30 1 -11 -13 11 -29 33 -37 50 -8 18 -9 22 -2 11 7 -10 24
-33 38 -50z m760 35 c-5 -11 -15 -23 -21 -27 -6 -3 -3 5 6 20 20 30 30 35 15
7z m1155 9 c-3 -5 -12 -10 -18 -10 -7 0 -6 4 3 10 19 12 23 12 15 0z m-4015
-15 c0 -6 -56 -35 -67 -35 -4 1 8 9 27 20 39 22 40 22 40 15z m3940 -20 c-14
-8 -29 -14 -35 -14 -5 0 1 6 15 14 14 8 30 14 35 14 6 0 -1 -6 -15 -14z m3096
-18 c-17 -42 -45 -94 -46 -86 0 10 51 119 56 119 2 0 -2 -15 -10 -33z m-7407
-3 c14 -12 -19 -1 -35 12 -18 14 -18 14 6 3 14 -6 27 -13 29 -15z m1246 16
c-3 -5 -12 -10 -18 -10 -7 0 -6 4 3 10 19 12 23 12 15 0z m1907 -60 c-29 -28
-58 -50 -64 -50 -6 0 7 13 28 29 21 15 48 38 58 50 11 11 22 21 25 21 3 -1
-18 -23 -47 -50z m1100 23 c-3 -16 -7 -22 -10 -15 -4 13 4 42 11 42 2 0 2 -12
-1 -27z m-4215 11 c-3 -3 -12 -4 -19 -1 -8 3 -5 6 6 6 11 1 17 -2 13 -5z m226
-1 c-7 -2 -19 -2 -25 0 -7 3 -2 5 12 5 14 0 19 -2 13 -5z m920 0 c-7 -2 -19
-2 -25 0 -7 3 -2 5 12 5 14 0 19 -2 13 -5z m-1070 -10 c-13 -2 -33 -2 -45 0
-13 2 -3 4 22 4 25 0 35 -2 23 -4z m90 0 c-7 -2 -19 -2 -25 0 -7 3 -2 5 12 5
14 0 19 -2 13 -5z m2328 -34 l34 -31 -32 21 c-18 12 -35 26 -38 31 -11 18 2
10 36 -21z m-3210 -26 c-12 -20 -14 -14 -5 12 4 9 9 14 11 11 3 -2 0 -13 -6
-23z m8020 -60 c-11 -21 -20 -35 -21 -31 0 12 33 78 38 74 2 -2 -6 -21 -17
-43z m-4692 11 c14 -12 -19 -1 -35 12 -18 14 -18 14 6 3 14 -6 27 -13 29 -15z
m421 22 c0 -2 -7 -7 -16 -10 -8 -3 -12 -2 -9 4 6 10 25 14 25 6z m-50 -26 c-8
-5 -19 -10 -25 -10 -5 0 -3 5 5 10 8 5 20 10 25 10 6 0 3 -5 -5 -10z m-3727
-30 c-3 -12 -8 -19 -11 -16 -5 6 5 36 12 36 2 0 2 -9 -1 -20z m3447 10 c20 -6
21 -8 5 -8 -11 0 -29 3 -40 8 -25 11 1 11 35 0z m203 -7 c-7 -2 -21 -2 -30 0
-10 3 -4 5 12 5 17 0 24 -2 18 -5z m-75 -10 c-15 -2 -42 -2 -60 0 -18 2 -6 4
27 4 33 0 48 -2 33 -4z m1369 -30 c-3 -10 -5 -4 -5 12 0 17 2 24 5 18 2 -7 2
-21 0 -30z m-2997 7 c8 -5 11 -10 5 -10 -5 0 -17 5 -25 10 -8 5 -10 10 -5 10
6 0 17 -5 25 -10z m-1969 -27 c-12 -20 -14 -14 -5 12 4 9 9 14 11 11 3 -2 0
-13 -6 -23z m4846 -35 c-2 -13 -4 -3 -4 22 0 25 2 35 4 23 2 -13 2 -33 0 -45z
m3195 45 c-4 -10 -16 -37 -26 -61 -10 -24 -20 -41 -23 -39 -4 5 45 117 52 117
2 0 1 -8 -3 -17z m-5894 -64 c62 -33 112 -63 112 -65 0 -4 -226 112 -239 123
-2 1 0 3 6 3 5 0 60 -27 121 -61z m-459 36 c-9 -8 -79 -35 -79 -30 0 3 15 11
33 19 32 15 54 20 46 11z m-1702 -27 c-3 -8 -6 -5 -6 6 -1 11 2 17 5 13 3 -3
4 -12 1 -19z m96 -5 c-13 -2 -33 -2 -45 0 -13 2 -3 4 22 4 25 0 35 -2 23 -4z
m117 -19 c17 -10 18 -13 5 -8 -11 3 -33 10 -50 14 -27 7 -28 8 -5 9 14 0 36
-7 50 -15z m4757 -61 c-2 -16 -4 -3 -4 27 0 30 2 43 4 28 2 -16 2 -40 0 -55z
m-3049 50 c-10 -2 -28 -2 -40 0 -13 2 -5 4 17 4 22 1 32 -1 23 -4z m-71 -9
c-3 -3 -12 -4 -19 -1 -8 3 -5 6 6 6 11 1 17 -2 13 -5z m123 -4 c8 -5 11 -10 5
-10 -5 0 -17 5 -25 10 -8 5 -10 10 -5 10 6 0 17 -5 25 -10z m2877 -37 c-3 -10
-5 -2 -5 17 0 19 2 27 5 18 2 -10 2 -26 0 -35z m-4562 27 c3 -6 -1 -7 -9 -4
-18 7 -21 14 -7 14 6 0 13 -4 16 -10z m1245 6 c0 -2 -7 -7 -16 -10 -8 -3 -12
-2 -9 4 6 10 25 14 25 6z m260 -11 c-14 -8 -29 -14 -35 -14 -5 0 1 6 15 14 14
8 30 14 35 14 6 0 -1 -6 -15 -14z m-1410 -71 l45 -47 -62 54 c-35 29 -63 55
-63 57 0 10 41 -23 80 -64z m1100 61 c0 -2 -10 -9 -22 -15 -22 -11 -22 -10 -4
4 21 17 26 19 26 11z m590 -22 c27 -15 48 -29 45 -31 -2 -2 -28 10 -57 27 -65
38 -56 41 12 4z m-1000 -3 c46 -25 34 -25 -21 0 -24 11 -37 19 -29 19 8 0 31
-8 50 -19z m6901 -27 c-11 -21 -20 -35 -21 -31 0 12 33 78 38 74 2 -2 -6 -21
-17 -43z m-6251 33 c0 -3 -31 -19 -70 -37 -38 -17 -72 -40 -75 -49 -3 -10 -13
-24 -22 -32 -14 -10 -13 -7 3 21 14 24 38 43 89 67 73 36 75 37 75 30z m-300
-15 c-8 -5 -26 -11 -40 -15 -21 -5 -20 -3 5 9 32 15 60 20 35 6z m949 -17 c14
-12 -19 -1 -35 12 -18 14 -18 14 6 3 14 -6 27 -13 29 -15z m2471 -96 l-5 -113
-3 99 c-2 88 1 126 10 126 2 0 1 -51 -2 -112z m-4648 78 c12 -9 18 -16 12 -16
-5 0 -15 5 -21 11 -5 5 -48 14 -94 19 l-84 9 82 -4 c54 -2 90 -8 105 -19z
m-195 8 c-3 -3 -12 -4 -19 -1 -8 3 -5 6 6 6 11 1 17 -2 13 -5z m1178 -4 c13
-5 14 -9 5 -9 -8 0 -24 4 -35 9 -13 5 -14 9 -5 9 8 0 24 -4 35 -9z m160 0
c-11 -5 -29 -8 -40 -8 -16 0 -15 2 5 8 34 11 60 11 35 0z m829 -5 c11 -8 15
-15 10 -15 -6 0 -19 7 -30 15 -10 8 -14 14 -9 14 6 0 19 -6 29 -14z m322 -43
c-5 -4 -106 46 -106 53 0 3 25 -7 55 -22 30 -15 53 -29 51 -31z m-2526 44 c0
-2 -8 -10 -17 -17 -16 -13 -17 -12 -4 4 13 16 21 21 21 13z m4997 -73 c-2 -16
-4 -3 -4 27 0 30 2 43 4 28 2 -16 2 -40 0 -55z m-1900 47 c3 -10 2 -11 -4 -4
-4 7 -19 14 -33 17 -22 4 -21 5 4 4 17 -1 31 -9 33 -17z m-81 -5 c-20 -15 -36
-19 -36 -10 0 5 38 23 50 24 3 0 -4 -6 -14 -14z m-2621 -115 c19 -30 37 -68
40 -85 4 -21 -1 -14 -17 21 -33 73 -55 104 -101 148 l-42 39 43 -34 c24 -19
59 -59 77 -89z m715 85 c29 -19 58 -35 66 -35 19 0 30 -26 38 -85 4 -34 3 -43
-3 -30 -5 11 -10 34 -10 50 -2 39 -7 45 -64 74 -43 22 -98 61 -85 61 4 0 29
-16 58 -35z m-1143 -7 c-3 -7 -5 -2 -5 12 0 14 2 19 5 13 2 -7 2 -19 0 -25z
m2335 12 c18 -11 29 -20 23 -20 -5 0 -23 9 -40 20 -39 26 -25 26 17 0z m-1812
-21 c15 -28 5 -23 -15 7 -9 15 -12 23 -6 20 6 -4 16 -16 21 -27z m2080 21 c8
-5 11 -10 5 -10 -5 0 -17 5 -25 10 -8 5 -10 10 -5 10 6 0 17 -5 25 -10z m375
-5 c-16 -8 -37 -14 -45 -14 -8 0 1 7 20 14 46 18 64 17 25 0z m155 6 c0 -14
-49 -70 -73 -82 -11 -6 -1 8 21 31 23 23 42 46 42 51 0 5 2 9 5 9 3 0 5 -4 5
-9z m4831 -97 c-27 -55 -50 -96 -50 -92 -1 11 93 198 97 194 2 -2 -19 -48 -47
-102z m-5296 76 c13 -6 15 -9 5 -9 -8 0 -22 4 -30 9 -18 12 -2 12 25 0z m-189
-58 c-5 -4 -106 46 -106 53 0 3 25 -7 55 -22 30 -15 53 -29 51 -31z m431 52
c-3 -3 -12 -4 -19 -1 -8 3 -5 6 6 6 11 1 17 -2 13 -5z m-2920 -26 c-3 -8 -6
-5 -6 6 -1 11 2 17 5 13 3 -3 4 -12 1 -19z m2736 15 c-7 -2 -19 -2 -25 0 -7 3
-2 5 12 5 14 0 19 -2 13 -5z m140 0 c-7 -2 -21 -2 -30 0 -10 3 -4 5 12 5 17 0
24 -2 18 -5z m-1398 -12 c3 -5 0 -13 -6 -17 -7 -4 -9 -3 -5 4 3 6 -2 13 -11
15 -16 4 -16 5 -1 6 9 0 19 -3 23 -8z m-905 -45 c0 -12 -5 -7 -19 24 -11 24
-11 24 3 6 9 -11 16 -24 16 -30z m857 38 c-3 -3 -12 -4 -19 -1 -8 3 -5 6 6 6
11 1 17 -2 13 -5z m173 -14 c-6 -11 -13 -20 -16 -20 -2 0 0 9 6 20 6 11 13 20
16 20 2 0 0 -9 -6 -20z m2683 13 c-18 -2 -48 -2 -65 0 -18 2 -4 4 32 4 36 0
50 -2 33 -4z m-2912 -45 c-4 -35 -6 -38 -9 -15 -3 26 3 57 10 57 2 0 1 -19 -1
-42z m2786 36 c-3 -3 -12 -4 -19 -1 -8 3 -5 6 6 6 11 1 17 -2 13 -5z m230 0
c-3 -3 -12 -4 -19 -1 -8 3 -5 6 6 6 11 1 17 -2 13 -5z m-282 -14 c-27 -12 -43
-12 -25 0 8 5 22 9 30 9 10 0 8 -3 -5 -9z m335 0 c18 -12 2 -12 -25 0 -13 6
-15 9 -5 9 8 0 22 -4 30 -9z m-1880 -25 c14 -8 21 -14 15 -14 -5 0 -21 6 -35
14 -14 8 -20 14 -15 14 6 0 21 -6 35 -14z m457 -5 c-14 -11 -28 -33 -30 -48
-4 -26 -4 -26 -6 4 -1 22 6 36 22 47 32 23 44 20 14 -3z m1028 10 c-3 -5 -12
-10 -18 -10 -7 0 -6 4 3 10 19 12 23 12 15 0z m-4068 -37 c-3 -10 -5 -4 -5 12
0 17 2 24 5 18 2 -7 2 -21 0 -30z m613 -8 c0 -5 -5 -3 -10 5 -5 8 -10 20 -10
25 0 6 5 3 10 -5 5 -8 10 -19 10 -25z m3389 11 c-19 -14 -46 -34 -61 -46 -16
-12 -26 -16 -23 -8 6 14 94 76 109 77 6 1 -6 -10 -25 -23z m560 8 c45 -22 152
-125 174 -166 l18 -33 -23 29 c-57 74 -97 112 -153 148 -63 40 -70 49 -16 22z
m-1874 -14 c13 -5 14 -9 5 -9 -8 0 -24 4 -35 9 -13 5 -14 9 -5 9 8 0 24 -4 35
-9z m-1113 -22 c-7 -7 -12 -8 -12 -2 0 14 12 26 19 19 2 -3 -1 -11 -7 -17z
m3475 -85 c-2 -21 -4 -4 -4 37 0 41 2 58 4 38 2 -21 2 -55 0 -75z m-2161 72
c1 -14 0 -15 -3 -3 -4 14 -19 18 -91 21 l-87 3 90 0 c83 -1 90 -3 91 -21z
m-2269 -17 c-3 -7 -5 -2 -5 12 0 14 2 19 5 13 2 -7 2 -19 0 -25z m-630 -10
c-3 -7 -5 -2 -5 12 0 14 2 19 5 13 2 -7 2 -19 0 -25z m4246 25 c-7 -2 -21 -2
-30 0 -10 3 -4 5 12 5 17 0 24 -2 18 -5z m125 0 c-10 -2 -26 -2 -35 0 -10 3
-2 5 17 5 19 0 27 -2 18 -5z m-2817 -54 c-11 -24 -20 -41 -20 -37 -1 12 31 89
35 85 3 -2 -4 -24 -15 -48z m2594 31 c-27 -12 -43 -12 -25 0 8 5 22 9 30 9 10
0 8 -3 -5 -9z m-2715 -15 c-7 -9 -15 -13 -19 -10 -3 3 1 10 9 15 21 14 24 12
10 -5z m2447 -28 c-17 -23 -40 -54 -50 -67 -17 -24 -17 -24 0 8 18 34 71 102
79 102 2 0 -11 -19 -29 -43z m-3349 -87 c0 -97 -5 -79 -11 35 -2 50 -1 79 3
65 5 -14 8 -59 8 -100z m3567 110 c-3 -5 -12 -10 -18 -10 -7 0 -6 4 3 10 19
12 23 12 15 0z m415 -7 c41 -27 94 -75 114 -102 15 -20 -62 45 -84 70 -3 4
-21 16 -40 28 -19 11 -30 21 -25 21 6 0 22 -8 35 -17z m427 -120 c-2 -27 -3
-5 -3 47 0 52 1 74 3 48 2 -27 2 -69 0 -95z m-4950 35 c-2 -18 -4 -4 -4 32 0
36 2 50 4 33 2 -18 2 -48 0 -65z m7944 69 c-10 -9 -11 -8 -5 6 3 10 9 15 12
12 3 -3 0 -11 -7 -18z m-7294 -9 c-3 -8 -6 -5 -6 6 -1 11 2 17 5 13 3 -3 4
-12 1 -19z m3393 -11 c-20 -17 -45 -39 -56 -47 -11 -8 2 6 30 33 27 26 52 47
55 47 3 0 -10 -15 -29 -33z m-2712 -57 c0 -22 -1 -22 -8 5 -4 17 -8 41 -8 55
0 22 1 22 8 -5 4 -16 8 -41 8 -55z m1689 58 c-3 -8 -6 -5 -6 6 -1 11 2 17 5
13 3 -3 4 -12 1 -19z m-120 -30 c-3 -7 -5 -2 -5 12 0 14 2 19 5 13 2 -7 2 -19
0 -25z m5013 -14 c-20 -45 -50 -95 -50 -82 0 10 60 128 65 128 2 0 -5 -21 -15
-46z m-6384 -20 c-8 -21 -15 -34 -15 -28 -1 15 20 76 25 71 2 -2 -2 -21 -10
-43z m-869 -1 c-3 -10 -5 -4 -5 12 0 17 2 24 5 18 2 -7 2 -21 0 -30z m2350 0
c-3 -10 -5 -4 -5 12 0 17 2 24 5 18 2 -7 2 -21 0 -30z m-120 -15 c-3 -8 -6 -5
-6 6 -1 11 2 17 5 13 3 -3 4 -12 1 -19z m1908 -19 c9 -17 15 -33 13 -35 -3 -2
-12 12 -21 31 -21 43 -13 47 8 4z m-995 -25 c-10 -21 -19 -35 -20 -31 0 14 30
80 35 75 3 -2 -4 -22 -15 -44z m-3803 -41 c-2 -16 -4 -3 -4 27 0 30 2 43 4 28
2 -16 2 -40 0 -55z m1340 55 c-3 -8 -6 -5 -6 6 -1 11 2 17 5 13 3 -3 4 -12 1
-19z m1660 0 c-3 -8 -6 -5 -6 6 -1 11 2 17 5 13 3 -3 4 -12 1 -19z m1681 -24
c-4 -3 -12 5 -18 18 -12 22 -12 22 6 6 10 -10 15 -20 12 -24z m-3174 -13 c-4
-17 -9 -30 -11 -27 -3 2 -2 19 2 36 9 41 17 33 9 -9z m2421 9 c-9 -16 -18 -30
-21 -30 -2 0 2 14 11 30 9 17 18 30 21 30 2 0 -2 -13 -11 -30z m-1048 -2 c-3
-8 -6 -5 -6 6 -1 11 2 17 5 13 3 -3 4 -12 1 -19z m-1518 -38 c0 -9 -4 -8 -9 5
-5 11 -9 27 -9 35 0 9 4 8 9 -5 5 -11 9 -27 9 -35z m-712 18 c-3 -8 -6 -5 -6
6 -1 11 2 17 5 13 3 -3 4 -12 1 -19z m7206 2 c-3 -11 -10 -23 -16 -27 -5 -3
-8 -2 -5 3 3 5 8 17 11 27 9 24 16 22 10 -3z m-7326 -12 c-3 -8 -6 -5 -6 6 -1
11 2 17 5 13 3 -3 4 -12 1 -19z m4171 -3 c-3 -3 -9 2 -12 12 -6 14 -5 15 5 6
7 -7 10 -15 7 -18z m141 -60 c0 -11 -7 0 -15 25 -7 25 -13 50 -13 55 1 18 27
-59 28 -80z m-1852 53 c-3 -8 -6 -5 -6 6 -1 11 2 17 5 13 3 -3 4 -12 1 -19z
m-120 -10 c-3 -8 -6 -5 -6 6 -1 11 2 17 5 13 3 -3 4 -12 1 -19z m897 -53 l-13
-70 5 59 c3 33 8 65 11 73 11 29 10 5 -3 -62z m1293 -12 c-2 -16 -4 -3 -4 27
0 30 2 43 4 28 2 -16 2 -40 0 -55z m-3570 30 c-3 -10 -5 -4 -5 12 0 17 2 24 5
18 2 -7 2 -21 0 -30z m3232 -13 c0 -9 -4 -8 -9 5 -5 11 -9 27 -9 35 0 9 4 8 9
-5 5 -11 9 -27 9 -35z m211 -114 c-6 -72 -14 -133 -17 -136 -3 -3 -3 22 1 55
3 33 9 103 13 155 4 52 9 87 11 76 2 -10 -1 -78 -8 -150z m-4300 99 c-7 -25
-15 -44 -17 -42 -2 3 2 25 9 50 6 26 14 44 16 42 3 -2 -1 -25 -8 -50z m3254 6
c-4 -23 -9 -40 -11 -37 -3 3 -2 23 2 46 4 23 9 39 11 37 3 -2 2 -23 -2 -46z
m3904 -30 c-23 -44 -44 -78 -46 -76 -4 4 78 155 85 155 2 0 -15 -36 -39 -79z
m-7781 32 c-3 -10 -5 -4 -5 12 0 17 2 24 5 18 2 -7 2 -21 0 -30z m2967 -12
c-4 -23 -9 -40 -11 -37 -3 3 -2 23 2 46 4 23 9 39 11 37 3 -2 2 -23 -2 -46z
m-120 0 c-4 -17 -9 -30 -11 -27 -3 2 -2 19 2 36 9 41 17 33 9 -9z m-2353 -12
c-5 -13 -10 -19 -10 -12 -1 15 10 45 15 40 3 -2 0 -15 -5 -28z m876 -1 c-3 -7
-5 -2 -5 12 0 14 2 19 5 13 2 -7 2 -19 0 -25z m-1349 -58 c0 -9 -3 -7 -8 5 -5
11 -8 29 -8 40 0 16 2 15 8 -5 4 -14 8 -32 8 -40z m4699 38 c-3 -8 -6 -5 -6 6
-1 11 2 17 5 13 3 -3 4 -12 1 -19z m120 -70 c-5 -83 -23 -176 -32 -166 -2 2 3
30 11 63 7 33 14 90 14 128 0 37 3 67 6 67 4 0 4 -42 1 -92z m-3340 60 c-3 -8
-6 -5 -6 6 -1 11 2 17 5 13 3 -3 4 -12 1 -19z m-1027 -18 c-6 -11 -13 -20 -16
-20 -2 0 0 9 6 20 6 11 13 20 16 20 2 0 0 -9 -6 -20z m2349 -39 c-7 -28 -15
-49 -17 -46 -2 2 2 27 9 54 7 28 15 49 17 46 2 -2 -2 -27 -9 -54z m2218 -18
c-2 -16 -4 -3 -4 27 0 30 2 43 4 28 2 -16 2 -40 0 -55z m-4461 9 c-14 -28 -30
-53 -34 -56 -5 -3 5 21 22 54 17 32 32 57 34 55 2 -2 -8 -26 -22 -53z m2371
36 c-3 -8 -6 -5 -6 6 -1 11 2 17 5 13 3 -3 4 -12 1 -19z m-1553 -23 c5 -22 4
-26 -4 -15 -5 8 -10 24 -10 34 0 26 6 18 14 -19z m134 -45 c0 -8 -6 1 -13 20
-7 19 -13 42 -13 50 0 8 6 -1 13 -20 7 -19 13 -42 13 -50z m2329 43 c-3 -10
-5 -4 -5 12 0 17 2 24 5 18 2 -7 2 -21 0 -30z m-110 -50 c-2 -16 -4 -5 -4 22
0 28 2 40 4 28 2 -13 2 -35 0 -50z m-3704 5 c16 -50 14 -67 -3 -23 -13 34 -24
81 -18 75 3 -3 12 -26 21 -52z m391 27 c-9 -14 -18 -25 -21 -25 -5 0 5 18 20
38 17 22 18 13 1 -13z m2500 -9 c-3 -15 -8 -25 -11 -23 -2 3 -1 17 3 31 3 15
8 25 11 23 2 -3 1 -17 -3 -31z m4784 -6 c-7 -10 -14 -17 -17 -15 -4 4 18 35
25 35 2 0 -1 -9 -8 -20z m-7309 -22 c-2 -2 -17 -14 -34 -28 l-30 -25 24 28
c14 15 29 27 34 27 6 0 8 -1 6 -2z m3458 -20 c-3 -8 -6 -5 -6 6 -1 11 2 17 5
13 3 -3 4 -12 1 -19z m838 -25 c-8 -27 -15 -50 -15 -52 0 -2 -2 -2 -5 1 -3 2
0 20 6 39 6 19 12 40 15 47 2 6 6 12 8 12 3 0 -1 -21 -9 -47z m322 0 c-3 -10
-5 -2 -5 17 0 19 2 27 5 18 2 -10 2 -26 0 -35z m-3473 -12 c9 -28 16 -53 16
-58 -1 -12 -26 47 -34 80 -11 45 1 31 18 -22z m1236 12 c-11 -17 -11 -17 -6 0
3 10 6 24 7 30 0 9 2 9 5 0 3 -7 0 -20 -6 -30z m120 0 c-11 -17 -11 -17 -6 0
3 10 6 24 7 30 0 9 2 9 5 0 3 -7 0 -20 -6 -30z m4774 7 c-10 -16 -20 -28 -22
-26 -4 5 28 56 35 56 2 0 -4 -13 -13 -30z m-7163 -7 c-5 -10 -26 -34 -47 -53
-36 -33 -35 -33 7 17 47 56 56 64 40 36z m927 -68 c0 -5 -6 4 -13 20 -8 17
-14 37 -14 45 0 8 7 -1 14 -20 7 -19 13 -39 13 -45z m2321 32 c1 -5 -3 -5 -9
-2 -5 3 -10 16 -9 28 0 21 1 21 9 2 5 -11 9 -24 9 -28z m-3661 -3 c15 -7 20
-14 12 -14 -8 0 -26 10 -40 21 -14 11 -19 18 -12 14 6 -3 24 -13 40 -21z m192
6 c-8 -5 -19 -10 -25 -10 -5 0 -3 5 5 10 8 5 20 10 25 10 6 0 3 -5 -5 -10z
m2597 -12 c-3 -8 -6 -5 -6 6 -1 11 2 17 5 13 3 -3 4 -12 1 -19z m1054 -94 c6
-8 8 -14 3 -14 -11 1 -60 80 -69 112 -3 12 7 -1 24 -31 17 -29 36 -60 42 -67z
m3699 86 c-6 -11 -12 -20 -14 -20 -2 0 -2 9 1 20 3 11 9 20 15 20 5 0 4 -9 -2
-20z m-7442 -7 c-10 -2 -28 -2 -40 0 -13 2 -5 4 17 4 22 1 32 -1 23 -4z m4687
-68 c-4 -31 -9 -54 -12 -51 -3 2 -1 30 2 61 4 31 9 54 12 51 3 -2 1 -30 -2
-61z m-225 35 c-6 -11 -13 -20 -16 -20 -2 0 0 9 6 20 6 11 13 20 16 20 2 0 0
-9 -6 -20z m-3080 -25 c0 -5 -5 -3 -10 5 -5 8 -10 20 -10 25 0 6 5 3 10 -5 5
-8 10 -19 10 -25z m2220 -24 c-1 -13 -30 34 -30 48 0 9 7 3 15 -13 8 -15 15
-31 15 -35z m971 11 c-11 -23 -25 -43 -30 -46 -5 -3 3 16 18 43 31 59 42 61
12 3z m2818 -2 c-23 -37 -36 -50 -52 -49 -21 2 -21 2 -2 6 11 2 33 24 48 48
14 25 29 45 32 45 2 0 -9 -22 -26 -50z m-4848 13 c-12 -20 -14 -14 -5 12 4 9
9 14 11 11 3 -2 0 -13 -6 -23z m120 0 c-12 -20 -14 -14 -5 12 4 9 9 14 11 11
3 -2 0 -13 -6 -23z m-2471 12 c0 -2 -10 -9 -22 -15 -22 -11 -22 -10 -4 4 21
17 26 19 26 11z m4238 -35 c-7 -11 -19 -22 -28 -25 -8 -4 -4 5 9 19 29 31 36
33 19 6z m369 -12 c-3 -7 -5 -2 -5 12 0 14 2 19 5 13 2 -7 2 -19 0 -25z
m-4667 12 c-8 -5 -19 -10 -25 -10 -5 0 -3 5 5 10 8 5 20 10 25 10 6 0 3 -5 -5
-10z m1274 -40 c5 -17 4 -20 -2 -10 -5 8 -13 26 -16 40 -5 17 -4 20 2 10 5 -8
13 -26 16 -40z m1220 -49 c-15 -39 -28 -70 -30 -68 -2 2 8 36 23 76 14 39 28
70 30 68 2 -3 -8 -37 -23 -76z m1077 -32 c66 -67 114 -99 199 -131 25 -9 37
-17 26 -18 -10 0 -51 16 -91 36 -79 39 -179 128 -214 192 -12 21 -14 26 -4 12
10 -13 48 -54 84 -91z m-3654 95 c-3 -3 -12 -4 -19 -1 -8 3 -5 6 6 6 11 1 17
-2 13 -5z m3798 -77 c6 -6 -3 -1 -20 10 -16 12 -41 34 -55 49 -17 19 -10 15
20 -10 25 -21 50 -43 55 -49z m-3877 66 c-27 -4 -27 -5 -12 -31 l16 -27 -21
25 c-28 34 -26 40 12 39 29 -2 30 -2 5 -6z m1332 -62 c-1 -13 -29 45 -29 59 0
8 6 0 14 -19 8 -18 15 -36 15 -40z m1211 42 c-12 -20 -14 -14 -5 12 4 9 9 14
11 11 3 -2 0 -13 -6 -23z m4196 21 c-3 -3 -12 -4 -19 -1 -8 3 -5 6 6 6 11 1
17 -2 13 -5z m326 -1 c-56 -2 -151 -2 -210 0 -59 1 -13 3 102 3 116 0 164 -2
108 -3z m-2648 -13 c-3 -5 -20 -19 -38 -30 l-32 -22 35 31 c35 32 46 38 35 21z
m2123 3 c-15 -2 -42 -2 -60 0 -18 2 -6 4 27 4 33 0 48 -2 33 -4z m-2005 -48
c-52 -67 -176 -150 -253 -169 l-25 -6 25 12 c114 53 141 70 204 133 39 39 73
69 74 68 2 -1 -9 -18 -25 -38z m164 23 c-3 -8 -6 -5 -6 6 -1 11 2 17 5 13 3
-3 4 -12 1 -19z m1511 15 c-16 -2 -40 -2 -55 0 -16 2 -3 4 27 4 30 0 43 -2 28
-4z m-140 -10 c-27 -2 -69 -2 -95 0 -27 2 -5 3 47 3 52 0 74 -1 48 -3z m-4589
-78 c0 -5 -8 6 -19 25 -11 19 -19 40 -19 45 0 6 8 -6 19 -25 11 -19 19 -39 19
-45z m4369 68 c-10 -2 -28 -2 -40 0 -13 2 -5 4 17 4 22 1 32 -1 23 -4z m-3349
-82 c-18 -39 -33 -70 -35 -68 -2 2 10 36 28 75 17 39 33 70 35 68 2 -2 -10
-36 -28 -75z m3144 72 c-7 -2 -21 -2 -30 0 -10 3 -4 5 12 5 17 0 24 -2 18 -5z
m-74 -22 l-24 -19 18 -68 c9 -37 16 -69 13 -71 -2 -2 -12 26 -21 62 -20 71
-11 115 21 115 12 0 11 -4 -7 -19z m-5496 -89 c31 -46 52 -80 47 -77 -9 6 -95
129 -115 165 -18 33 14 -8 68 -88z m1324 -59 c-2 -2 -17 25 -32 59 -40 93 -40
104 0 19 20 -40 34 -75 32 -78z m2933 143 c0 -2 -7 -7 -16 -10 -8 -3 -12 -2
-9 4 6 10 25 14 25 6z m340 -82 c-12 -43 -26 -85 -31 -93 -9 -13 -9 -12 -4 4
11 34 45 164 45 171 0 4 2 5 5 2 3 -3 -4 -41 -15 -84z m-710 56 c8 -5 11 -10
5 -10 -5 0 -17 5 -25 10 -8 5 -10 10 -5 10 6 0 17 -5 25 -10z m320 0 c-8 -5
-19 -10 -25 -10 -5 0 -3 5 5 10 8 5 20 10 25 10 6 0 3 -5 -5 -10z m517 -32
c-3 -7 -5 -2 -5 12 0 14 2 19 5 13 2 -7 2 -19 0 -25z m-772 12 c13 -5 14 -9 5
-9 -8 0 -24 4 -35 9 -13 5 -14 9 -5 9 8 0 24 -4 35 -9z m212 4 c-3 -3 -12 -4
-19 -1 -8 3 -5 6 6 6 11 1 17 -2 13 -5z m-1629 -44 c-5 -17 -15 -33 -21 -37
-5 -3 -7 -2 -4 4 4 6 11 22 16 37 14 36 22 33 9 -4z m-1098 -15 c0 -5 -5 -3
-10 5 -5 8 -10 20 -10 25 0 6 5 3 10 -5 5 -8 10 -19 10 -25z m3277 3 c-3 -8
-6 -5 -6 6 -1 11 2 17 5 13 3 -3 4 -12 1 -19z m-2330 -35 c-40 -76 -112 -195
-122 -203 -7 -6 17 39 53 100 36 60 67 110 70 110 2 0 1 -3 -1 -7z m114 -26
c-10 -9 -11 -8 -5 6 3 10 9 15 12 12 3 -3 0 -11 -7 -18z m2189 -34 c-11 -17
-11 -17 -6 0 3 10 7 26 7 35 1 15 2 15 6 0 2 -10 -1 -25 -7 -35z m-3346 21 c3
-8 2 -12 -4 -9 -6 3 -10 10 -10 16 0 14 7 11 14 -7z m2599 9 c-7 -2 -19 -2
-25 0 -7 3 -2 5 12 5 14 0 19 -2 13 -5z m60 -10 c-7 -2 -21 -2 -30 0 -10 3 -4
5 12 5 17 0 24 -2 18 -5z m110 0 c-7 -2 -21 -2 -30 0 -10 3 -4 5 12 5 17 0 24
-2 18 -5z m-4032 -20 c13 -16 12 -17 -3 -4 -17 13 -22 21 -14 21 2 0 10 -8 17
-17z m2379 -52 c-43 -69 -47 -64 -7 8 17 33 33 56 35 51 2 -4 -11 -31 -28 -59z
m-1076 -3 c15 -27 25 -48 22 -48 -7 0 -56 84 -56 95 0 11 1 9 34 -47z m125 16
c12 -20 20 -38 18 -41 -4 -4 -47 63 -47 73 0 11 10 1 29 -32z m-1299 -114 c75
-84 77 -88 10 -21 -31 31 -73 79 -94 106 -33 42 -33 45 -6 15 18 -19 58 -64
90 -100z m4479 90 c12 -10 33 -40 28 -40 -15 0 -47 46 -46 64 1 20 1 21 6 1 3
-11 8 -22 12 -25z m-150 -9 c-6 -18 -13 -30 -15 -28 -2 2 1 18 7 36 6 18 13
30 15 28 2 -2 -1 -18 -7 -36z m1010 -11 c0 -9 -4 -8 -9 5 -5 11 -9 27 -9 35 0
9 4 8 9 -5 5 -11 9 -27 9 -35z m-3976 -63 c21 -30 37 -58 37 -63 0 -8 -19 18
-65 89 -31 49 -9 28 28 -26z m808 -36 c-23 -33 -45 -62 -51 -66 -5 -3 12 25
38 64 26 38 49 67 50 66 2 -2 -15 -31 -37 -64z m2130 46 c-10 -9 -11 -8 -5 6
3 10 9 15 12 12 3 -3 0 -11 -7 -18z m-2968 -164 c11 -13 18 -25 15 -28 -5 -6
-130 166 -137 188 -2 6 20 -22 49 -63 28 -41 61 -85 73 -97z m3259 85 c30 -40
58 -80 63 -88 14 -25 -28 23 -57 65 -15 22 -37 52 -48 68 -12 15 -19 27 -17
27 3 0 30 -33 59 -72z m-2582 12 c-17 -22 -37 -43 -43 -47 -6 -4 6 14 27 40
21 26 40 47 43 47 3 0 -10 -18 -27 -40z m2265 10 c-9 -16 -17 -30 -19 -30 -3
0 1 14 7 30 6 17 15 30 19 30 5 0 2 -13 -7 -30z m1103 -30 c0 -9 -3 -7 -8 5
-5 11 -8 29 -8 40 0 16 2 15 8 -5 4 -14 8 -32 8 -40z m-902 -28 c251 -343 476
-673 478 -700 1 -12 -56 -46 -204 -119 -113 -56 -212 -101 -220 -100 -17 3
-46 107 -90 327 -45 225 -60 346 -60 488 0 131 11 185 35 176 7 -3 34 -35 61
-72z m-3026 -7 c19 -19 32 -35 29 -35 -3 0 -20 16 -39 35 -19 19 -32 35 -29
35 3 0 20 -16 39 -35z m2786 0 c-9 -9 -16 -13 -16 -8 0 12 22 34 28 28 2 -2
-3 -11 -12 -20z m-4133 -6 c10 -11 17 -23 14 -25 -2 -2 -13 7 -25 21 -12 14
-18 25 -14 25 4 0 16 -9 25 -21z m1990 -23 c-10 -13 -20 -22 -22 -20 -4 4 29
44 36 44 2 0 -4 -11 -14 -24z m-180 -19 c-53 -42 -68 -50 -28 -14 22 20 44 36
48 37 5 0 -4 -10 -20 -23z m2292 -6 c-8 -17 -19 -33 -25 -36 -5 -3 -1 10 11
29 25 43 36 48 14 7z m-4045 -13 c0 -6 -7 -5 -15 2 -8 7 -15 17 -15 22 0 6 7
5 15 -2 8 -7 15 -17 15 -22z m5259 -28 c0 -9 -4 -8 -9 5 -5 11 -9 27 -9 35 0
9 4 8 9 -5 5 -11 9 -27 9 -35z m-3888 13 c13 -17 13 -17 -6 -3 -11 8 -22 16
-24 17 -2 2 0 3 6 3 6 0 17 -8 24 -17z m3206 -74 c32 -45 64 -90 72 -100 7
-10 11 -19 8 -19 -3 0 -40 48 -82 106 -42 58 -72 103 -66 100 5 -4 36 -43 68
-87z m-2713 50 c-16 -17 -42 -40 -59 -51 -20 -13 -13 -3 20 30 54 54 88 72 39
21z m-1744 -70 c3 -3 34 -29 70 -58 36 -30 67 -57 70 -60 3 -3 40 -32 83 -65
42 -32 77 -60 77 -63 0 -3 -6 -1 -12 4 -7 5 -42 32 -78 59 -85 64 -258 214
-290 250 -19 22 51 -37 80 -67z m1195 -12 c6 -6 -3 -1 -20 11 -16 11 -46 37
-65 58 -28 31 -24 29 20 -10 30 -27 60 -54 65 -59z m365 88 c0 -8 -82 -45
-100 -44 -8 0 10 10 40 23 30 13 56 24 58 25 1 0 2 -1 2 -4z m2330 -9 c0 -2
-8 -10 -17 -17 -16 -13 -17 -12 -4 4 13 16 21 21 21 13z m-2559 -24 c-7 -2
-18 1 -23 6 -8 8 -4 9 13 5 13 -4 18 -8 10 -11z m3833 -47 c4 -20 3 -25 -3
-15 -5 8 -11 31 -15 50 -7 41 7 13 18 -35z m-3787 39 c-3 -3 -12 -4 -19 -1 -8
3 -5 6 6 6 11 1 17 -2 13 -5z m46 -11 c-7 -2 -19 -2 -25 0 -7 3 -2 5 12 5 14
0 19 -2 13 -5z m2437 3 c0 -2 -8 -10 -17 -17 -16 -13 -17 -12 -4 4 13 16 21
21 21 13z m136 -87 l2 -54 -7 47 c-4 26 -10 50 -13 53 -3 3 -15 -9 -26 -27
-12 -18 -33 -45 -48 -58 -15 -14 -5 3 21 38 27 34 53 61 59 59 6 -2 12 -28 12
-58z m-220 -9 c-20 -22 -36 -37 -36 -34 0 9 64 81 69 78 2 -2 -13 -22 -33 -44z
m-2511 20 c3 -6 -1 -7 -9 -4 -18 7 -21 14 -7 14 6 0 13 -4 16 -10z m305 -5
c-14 -8 -29 -14 -35 -14 -5 0 1 6 15 14 14 8 30 14 35 14 6 0 -1 -6 -15 -14z
m3619 -35 c0 -10 -3 -8 -9 5 -12 27 -12 43 0 25 5 -8 9 -22 9 -30z m-3875 21
c4 -5 -3 -7 -14 -4 -23 6 -26 13 -6 13 8 0 17 -4 20 -9z m203 -7 c-3 -3 -12
-4 -19 -1 -8 3 -5 6 6 6 11 1 17 -2 13 -5z m-1576 -31 l24 -28 -26 23 c-14 12
-29 19 -32 15 -4 -3 -7 -1 -7 5 0 20 15 14 41 -15z m1442 20 c-7 -2 -21 -2
-30 0 -10 3 -4 5 12 5 17 0 24 -2 18 -5z m90 0 c-7 -2 -19 -2 -25 0 -7 3 -2 5
12 5 14 0 19 -2 13 -5z m-1576 -70 c-3 -10 -5 -2 -5 17 0 19 2 27 5 18 2 -10
2 -26 0 -35z m3833 44 c0 -2 -15 -16 -32 -33 l-33 -29 29 33 c28 30 36 37 36
29z m870 -72 c28 -41 48 -75 46 -75 -3 0 -28 34 -56 75 -28 41 -48 75 -46 75
3 0 28 -34 56 -75z m-4492 -56 c34 -28 62 -53 62 -55 0 -3 -27 16 -61 43 -33
26 -73 57 -89 68 -15 11 -34 28 -40 39 -8 13 2 8 26 -12 22 -18 67 -56 102
-83z m3772 108 c0 -1 -26 -27 -57 -57 -36 -34 -44 -40 -23 -16 44 50 80 83 80
73z m1369 -172 c-1 -15 -49 138 -48 155 0 8 11 -21 24 -65 14 -44 24 -84 24
-90z m-1616 102 c-58 -48 -145 -109 -149 -104 -3 2 17 19 43 36 26 17 64 44
83 61 19 16 39 30 43 30 5 0 -4 -10 -20 -23z m117 -52 c-7 -9 -32 -30 -54 -47
-35 -26 -34 -24 9 15 52 48 67 58 45 32z m267 -7 c-3 -8 -6 -5 -6 6 -1 11 2
17 5 13 3 -3 4 -12 1 -19z m-3657 -25 c0 -7 -39 17 -46 28 -3 6 5 3 20 -6 14
-10 26 -19 26 -22z m4333 -32 c27 -46 14 -38 -18 12 -16 23 -22 37 -14 30 8
-6 22 -25 32 -42z m-666 7 c-3 -7 -5 -2 -5 12 0 14 2 19 5 13 2 -7 2 -19 0
-25z m-4152 -28 c-4 -23 -9 -39 -11 -37 -3 2 -2 23 2 46 4 23 9 40 11 37 3 -3
2 -23 -2 -46z m563 6 c23 -16 42 -31 42 -33 0 -7 -58 29 -88 55 -32 27 -14 19
46 -22z m-168 -32 c0 -3 -20 9 -45 26 -25 17 -45 33 -45 36 0 3 20 -9 45 -26
25 -17 45 -33 45 -36z m3190 42 c-18 -16 -125 -76 -137 -76 -8 0 137 89 147
90 2 0 -2 -6 -10 -14z m577 -38 c-3 -8 -6 -5 -6 6 -1 11 2 17 5 13 3 -3 4 -12
1 -19z m1251 -78 c0 -8 -6 1 -13 20 -7 19 -13 42 -13 50 0 8 6 -1 13 -20 7
-19 13 -42 13 -50z m-4932 19 c11 -19 -13 -8 -46 21 l-35 30 38 -21 c20 -11
40 -25 43 -30z m178 22 c4 -5 -5 -4 -19 2 -14 7 -25 16 -25 20 0 9 36 -9 44
-22z m3051 19 c-7 -12 -138 -90 -151 -90 -5 0 27 22 71 49 92 56 88 54 80 41z
m1165 -31 c15 -28 5 -23 -15 7 -9 15 -12 23 -6 20 6 -4 16 -16 21 -27z m-4893
-11 c-3 -7 -5 -2 -5 12 0 14 2 19 5 13 2 -7 2 -19 0 -25z m3453 17 c0 -6 -86
-45 -97 -44 -4 0 15 11 42 24 56 27 55 27 55 20z m748 -60 c0 -16 -2 -15 -8 5
-4 14 -8 34 -8 45 0 16 2 15 8 -5 4 -14 8 -34 8 -45z m-3431 12 c38 -24 92
-56 121 -72 28 -15 50 -30 48 -33 -4 -4 -159 85 -221 127 -56 39 -15 21 52
-22z m-182 -24 c11 -7 16 -13 12 -13 -11 0 -87 49 -87 56 0 6 24 -8 75 -43z
m4335 17 c6 -11 8 -20 6 -20 -3 0 -10 9 -16 20 -6 11 -8 20 -6 20 3 0 10 -9
16 -20z m-4936 -34 c-3 -21 -8 -35 -11 -32 -2 2 -1 20 3 40 3 21 8 35 11 32 2
-2 1 -20 -3 -40z m3351 36 c-14 -11 -86 -35 -91 -29 -2 2 17 11 43 20 57 19
60 19 48 9z m-125 -50 c-33 -27 -17 -50 38 -55 l47 -3 -47 -2 c-39 -2 -49 2
-58 19 -9 16 -8 25 6 40 9 10 21 19 27 19 5 0 -1 -8 -13 -18z m296 3 c-11 -8
-25 -15 -32 -15 -7 0 -21 -2 -31 -5 -10 -3 0 3 22 14 48 23 68 26 41 6z m701
-17 c-3 -7 -5 -2 -5 12 0 14 2 19 5 13 2 -7 2 -19 0 -25z m1240 10 c-3 -8 -6
-5 -6 6 -1 11 2 17 5 13 3 -3 4 -12 1 -19z m-4737 -28 c30 -16 51 -29 45 -29
-5 0 -35 13 -65 29 -30 16 -50 29 -45 29 6 0 35 -13 65 -29z m4247 -27 c-3
-10 -5 -4 -5 12 0 17 2 24 5 18 2 -7 2 -21 0 -30z m-1570 21 c-3 -3 -12 -4
-19 -1 -8 3 -5 6 6 6 11 1 17 -2 13 -5z m830 -26 c-3 -7 -5 -2 -5 12 0 14 2
19 5 13 2 -7 2 -19 0 -25z m-3247 -23 c0 -24 -18 -36 -53 -34 -16 1 -14 3 8 8
25 6 30 11 28 34 -1 15 2 25 8 22 5 -4 9 -17 9 -30z m-1013 3 c-3 -8 -6 -5 -6
6 -1 11 2 17 5 13 3 -3 4 -12 1 -19z m843 12 c8 -5 11 -10 5 -10 -5 0 -17 5
-25 10 -8 5 -10 10 -5 10 6 0 17 -5 25 -10z m51 -28 c-7 -2 -18 1 -23 6 -8 8
-4 9 13 5 13 -4 18 -8 10 -11z m4089 3 c-7 -8 -17 -15 -23 -15 -6 0 -2 7 9 15
25 19 30 19 14 0z m537 -17 c-3 -8 -6 -5 -6 6 -1 11 2 17 5 13 3 -3 4 -12 1
-19z m-5537 -25 c-11 -17 -11 -17 -6 0 3 10 6 24 7 30 0 9 2 9 5 0 3 -7 0 -20
-6 -30z m4297 5 c-3 -8 -6 -5 -6 6 -1 11 2 17 5 13 3 -3 4 -12 1 -19z m643 8
c0 -2 -7 -7 -16 -10 -8 -3 -12 -2 -9 4 6 10 25 14 25 6z m619 -51 c0 -5 -4 -3
-9 5 -5 8 -9 22 -9 30 0 16 17 -16 18 -35z m-664 25 c-3 -5 -11 -10 -17 -10
-5 0 -33 -11 -60 -25 -28 -14 -52 -24 -54 -22 -4 4 116 66 129 67 5 0 5 -4 2
-10z m-577 -55 c0 -16 -2 -15 -8 5 -11 34 -11 60 0 35 5 -11 8 -29 8 -40z
m-4337 4 c-5 -13 -10 -19 -10 -12 -1 15 10 45 15 40 3 -2 0 -15 -5 -28z m4768
-13 c-10 -9 -69 -36 -69 -32 0 7 52 35 64 36 5 0 7 -2 5 -4z m828 -48 c-3 -8
-6 -5 -6 6 -1 11 2 17 5 13 3 -3 4 -12 1 -19z m-5627 -35 c-11 -17 -11 -17 -6
0 3 10 6 24 7 30 0 9 2 9 5 0 3 -7 0 -20 -6 -30z m4399 -23 c0 -9 -4 -8 -9 5
-5 11 -9 27 -9 35 0 9 4 8 9 -5 5 -11 9 -27 9 -35z m280 46 c-10 -9 -69 -36
-69 -32 0 7 52 35 64 36 5 0 7 -2 5 -4z m955 -36 c-5 -5 -22 -11 -39 -15 l-30
-6 33 15 c17 8 32 21 33 28 0 10 2 10 6 0 3 -8 1 -18 -3 -22z m-1034 -4 c0 -2
-7 -7 -16 -10 -8 -3 -12 -2 -9 4 6 10 25 14 25 6z m-4507 -16 c-13 -5 -25 -21
-29 -37 -9 -45 -12 -50 -13 -23 -1 32 25 70 47 69 13 0 11 -3 -5 -9z m4452
-37 c0 -21 3 -51 8 -68 6 -23 5 -26 -3 -13 -14 24 -25 118 -14 118 5 0 9 -17
9 -37z m1010 29 c-14 -11 -86 -35 -91 -29 -2 2 17 11 43 20 57 19 60 19 48 9z
m-1148 -24 c-3 -8 -6 -5 -6 6 -1 11 2 17 5 13 3 -3 4 -12 1 -19z m-4436 -15
c-12 -20 -14 -14 -5 12 4 9 9 14 11 11 3 -2 0 -13 -6 -23z m5469 -2 c-8 -5
-26 -11 -40 -15 -21 -5 -20 -3 5 9 32 15 60 20 35 6z m-5489 -48 c-12 -20 -14
-14 -5 12 4 9 9 14 11 11 3 -2 0 -13 -6 -23z m4488 -28 c0 -5 -4 -3 -9 5 -5 8
-9 22 -9 30 0 16 17 -16 18 -35z m891 36 c-8 -5 -26 -11 -40 -15 -21 -5 -20
-3 5 9 32 15 60 20 35 6z m-140 -50 c-8 -5 -26 -11 -40 -15 -21 -5 -20 -3 5 9
32 15 60 20 35 6z m-610 -46 c0 -5 -5 -3 -10 5 -5 8 -10 20 -10 25 0 6 5 3 10
-5 5 -8 10 -19 10 -25z m-4433 -52 c-2 -16 -4 -5 -4 22 0 28 2 40 4 28 2 -13
2 -35 0 -50z m4904 47 c-24 -11 -48 -20 -55 -20 -16 1 66 38 84 39 8 0 -5 -8
-29 -19z m-573 -65 c0 -5 -6 4 -13 20 -8 17 -14 37 -14 45 0 8 7 -1 14 -20 7
-19 13 -39 13 -45z m-4577 42 c-10 -9 -11 -8 -5 6 3 10 9 15 12 12 3 -3 0 -11
-7 -18z m4686 -9 c-3 -8 -6 -5 -6 6 -1 11 2 17 5 13 3 -3 4 -12 1 -19z m393 8
c0 -2 -7 -7 -16 -10 -8 -3 -12 -2 -9 4 6 10 25 14 25 6z m-80 -36 c-8 -5 -19
-10 -25 -10 -5 0 -3 5 5 10 8 5 20 10 25 10 6 0 3 -5 -5 -10z m-4853 -62 c-2
-13 -4 -3 -4 22 0 25 2 35 4 23 2 -13 2 -33 0 -45z m-175 30 c-7 -7 -12 -8
-12 -2 0 14 12 26 19 19 2 -3 -1 -11 -7 -17z m4965 6 c-16 -9 -31 -13 -34 -10
-3 3 5 10 18 15 37 15 47 12 16 -5z m-323 -78 c14 -44 25 -81 22 -83 -4 -4
-56 147 -56 162 0 17 8 -3 34 -79z m276 61 c0 -2 -13 -13 -30 -25 -16 -13 -30
-19 -30 -15 0 5 12 16 28 25 28 18 32 20 32 15z m-4945 -47 c-9 -18 -19 -30
-21 -27 -3 2 3 18 13 35 10 17 19 29 21 27 2 -2 -4 -17 -13 -35z m312 3 c-3
-10 -5 -4 -5 12 0 17 2 24 5 18 2 -7 2 -21 0 -30z m4493 -58 c0 -5 -5 -3 -10
5 -5 8 -10 20 -10 25 0 6 5 3 10 -5 5 -8 10 -19 10 -25z m-4837 -5 c-3 -11
-10 -23 -16 -27 -5 -3 -8 -2 -5 3 3 5 8 17 11 27 9 24 16 22 10 -3z m4893 -31
c-18 -41 -21 -29 -4 18 7 19 14 30 16 25 1 -4 -4 -24 -12 -43z m-2332 22 c3
-4 -5 -6 -18 -4 -19 4 -29 -3 -50 -33 -31 -46 -34 -39 -5 10 20 35 60 49 73
27z m6 -58 c-11 -17 -11 -17 -6 0 3 10 6 24 7 30 0 9 2 9 5 0 3 -7 0 -20 -6
-30z m-2601 1 c-12 -34 -79 -154 -85 -154 -3 0 16 41 42 90 47 91 62 112 43
64z m388 -6 c-3 -7 -5 -2 -5 12 0 14 2 19 5 13 2 -7 2 -19 0 -25z m4518 -6
c-8 -8 -25 10 -25 26 0 13 2 13 14 -4 8 -10 13 -21 11 -22z m-121 -22 c5 -17
4 -20 -2 -10 -5 8 -13 26 -16 40 -5 17 -4 20 2 10 5 -8 13 -26 16 -40z m-2304
-41 c-11 -24 -20 -39 -20 -32 0 15 32 84 37 79 2 -1 -6 -23 -17 -47z m104 7
c-3 -15 -8 -25 -11 -23 -2 3 -1 17 3 31 3 15 8 25 11 23 2 -3 1 -17 -3 -31z
m-2307 -53 c-2 -16 -4 -5 -4 22 0 28 2 40 4 28 2 -13 2 -35 0 -50z m4533 22
c0 -5 -5 -3 -10 5 -5 8 -10 20 -10 25 0 6 5 3 10 -5 5 -8 10 -19 10 -25z
m-423 -1 c-3 -3 -12 -4 -19 -1 -8 3 -5 6 6 6 11 1 17 -2 13 -5z m-1820 -36
c-3 -7 -5 -2 -5 12 0 14 2 19 5 13 2 -7 2 -19 0 -25z m-2170 -30 c-2 -13 -4
-5 -4 17 -1 22 1 32 4 23 2 -10 2 -28 0 -40z m3942 15 c-15 -56 -20 -63 -13
-18 6 39 11 55 19 55 2 0 -1 -17 -6 -37z m501 -32 c-1 -13 -29 45 -29 59 0 8
6 0 14 -19 8 -18 15 -36 15 -40z m-2389 32 c-12 -20 -14 -14 -5 12 4 9 9 14
11 11 3 -2 0 -13 -6 -23z m98 -62 c-6 -29 -13 -50 -15 -48 -3 2 1 28 7 56 6
29 13 50 15 48 3 -2 -1 -28 -7 -56z m-2648 26 c-10 -9 -11 -8 -5 6 3 10 9 15
12 12 3 -3 0 -11 -7 -18z m386 -29 c-2 -13 -4 -5 -4 17 -1 22 1 32 4 23 2 -10
2 -28 0 -40z m120 -20 c-3 -7 -5 -2 -5 12 0 14 2 19 5 13 2 -7 2 -19 0 -25z
m1686 25 c-7 -2 -14 -19 -14 -36 -1 -25 -3 -27 -6 -9 -6 30 3 52 19 51 10 0
10 -2 1 -6z m51 -9 c5 -14 4 -15 -9 -4 -17 14 -19 20 -6 20 5 0 12 -7 15 -16z
m261 -85 c-14 -52 -22 -76 -19 -54 7 49 36 156 41 151 2 -2 -8 -45 -22 -97z
m2467 34 c-4 -12 -60 -29 -68 -20 -3 2 9 7 26 11 29 5 31 8 25 38 -6 33 -6 33
8 8 7 -14 12 -30 9 -37z m-559 15 c-9 -49 -25 -82 -17 -38 7 45 14 70 19 70 3
0 2 -15 -2 -32z m94 -5 c-3 -10 -5 -4 -5 12 0 17 2 24 5 18 2 -7 2 -21 0 -30z
m-4378 6 c12 -7 10 -8 -9 -4 -14 3 -45 10 -70 15 l-45 9 54 -5 c30 -3 62 -10
70 -15z m268 -51 c-2 -13 -4 -3 -4 22 0 25 2 35 4 23 2 -13 2 -33 0 -45z
m1867 46 c3 -8 2 -12 -4 -9 -6 3 -10 10 -10 16 0 14 7 11 14 -7z m-2084 -14
c8 -5 11 -10 5 -10 -5 0 -17 5 -25 10 -8 5 -10 10 -5 10 6 0 17 -5 25 -10z
m337 -52 c-2 -13 -4 -3 -4 22 0 25 2 35 4 23 2 -13 2 -33 0 -45z m5431 -6 l-2
-57 -3 53 c-2 28 -9 52 -14 52 -6 0 -7 5 -4 10 14 23 25 -4 23 -58z m-7020 18
c18 -27 22 -45 20 -104 l-1 -71 -6 76 c-6 80 -35 145 -52 118 -7 -11 -9 -10
-9 4 0 26 21 16 48 -23z m3691 -21 c-6 -30 -16 -61 -21 -69 -8 -13 -9 -13 -5
0 3 9 10 42 17 74 6 31 14 56 16 53 2 -2 -1 -28 -7 -58z m-2394 33 c-3 -3 -11
0 -18 7 -9 10 -8 11 6 5 10 -3 15 -9 12 -12z m1962 -4 c-3 -8 -6 -5 -6 6 -1
11 2 17 5 13 3 -3 4 -12 1 -19z m112 -38 c0 -8 -6 0 -14 19 -8 18 -15 36 -15
40 1 13 29 -45 29 -59z m2576 40 c-11 -5 -27 -9 -35 -9 -9 0 -8 4 5 9 11 5 27
9 35 9 9 0 8 -4 -5 -9z m-4585 -41 c0 -14 -5 -11 -31 17 l-24 27 28 -18 c15
-9 27 -21 27 -26z m4205 -9 c-4 -23 -9 -39 -11 -37 -3 2 -2 23 2 46 4 23 9 40
11 37 3 -3 2 -23 -2 -46z m325 35 c0 -5 -69 -35 -79 -34 -5 0 68 38 77 39 1 0
2 -2 2 -5z m-2611 -64 c1 -35 -5 -22 -12 24 -5 28 -4 34 3 20 5 -11 9 -31 9
-44z m-3332 -38 c-2 -16 -4 -3 -4 27 0 30 2 43 4 28 2 -16 2 -40 0 -55z m1116
70 c-13 -2 -33 -2 -45 0 -13 2 -3 4 22 4 25 0 35 -2 23 -4z m5924 -30 c-3 -10
-5 -4 -5 12 0 17 2 24 5 18 2 -7 2 -21 0 -30z m-6067 12 c-46 -18 -64 -17 -25
0 17 8 37 14 45 14 8 0 -1 -7 -20 -14z m240 5 c20 -6 21 -8 5 -8 -11 0 -29 3
-40 8 -25 11 1 11 35 0z m235 -10 c10 -11 16 -20 13 -20 -3 0 -13 9 -23 20
-10 11 -16 20 -13 20 3 0 13 -9 23 -20z m82 -12 c-3 -7 -5 -2 -5 12 0 14 2 19
5 13 2 -7 2 -19 0 -25z m120 -5 c-3 -10 -5 -4 -5 12 0 17 2 24 5 18 2 -7 2
-21 0 -30z m4163 9 c-14 -9 -53 -44 -88 -77 -54 -50 -63 -64 -60 -87 3 -16 1
-28 -4 -28 -4 0 -8 12 -8 28 1 17 15 43 43 73 39 44 122 110 136 108 3 0 -5
-8 -19 -17z m-316 -26 c-3 -15 -8 -25 -11 -23 -2 3 -1 17 3 31 3 15 8 25 11
23 2 -3 1 -17 -3 -31z m-4609 7 c-16 -8 -52 -29 -80 -45 -27 -17 -43 -23 -35
-14 18 18 121 76 135 75 6 0 -3 -7 -20 -16z m435 -3 c19 -11 31 -19 25 -19 -5
0 -26 8 -45 19 -19 11 -30 19 -25 19 6 0 26 -8 45 -19z m4771 4 c-35 -8 -66
-12 -69 -10 -5 6 76 24 108 24 14 0 -4 -6 -39 -14z m246 10 c-3 -3 -12 -4 -19
-1 -8 3 -5 6 6 6 11 1 17 -2 13 -5z m-2888 -44 c0 -10 -3 -8 -9 5 -12 27 -12
43 0 25 5 -8 9 -22 9 -30z m2928 34 c-3 -3 -12 -4 -19 -1 -8 3 -5 6 6 6 11 1
17 -2 13 -5z m43 -14 c8 -5 11 -10 5 -10 -5 0 -17 5 -25 10 -8 5 -10 10 -5 10
6 0 17 -5 25 -10z m607 -37 c-3 -10 -5 -2 -5 17 0 19 2 27 5 18 2 -10 2 -26 0
-35z m30 0 c-3 -10 -5 -2 -5 17 0 19 2 27 5 18 2 -10 2 -26 0 -35z m-6861 25
c4 -6 3 -13 -2 -15 -5 -2 -8 -22 -6 -46 6 -59 -4 -43 -12 21 -6 50 3 68 20 40z
m1352 -63 c0 -16 -2 -15 -8 5 -4 14 -8 36 -8 50 0 22 1 22 8 -5 4 -16 8 -39 8
-50z m109 38 c-3 -10 -5 -4 -5 12 0 17 2 24 5 18 2 -7 2 -21 0 -30z m1940 15
c-3 -8 -6 -5 -6 6 -1 11 2 17 5 13 3 -3 4 -12 1 -19z m2000 0 c-3 -8 -6 -5 -6
6 -1 11 2 17 5 13 3 -3 4 -12 1 -19z m398 12 c-11 -5 -27 -9 -35 -9 -9 0 -8 4
5 9 11 5 27 9 35 9 9 0 8 -4 -5 -9z m-4595 -26 c0 -2 -9 0 -20 6 -11 6 -20 13
-20 16 0 2 9 0 20 -6 11 -6 20 -13 20 -16z m5137 -37 c40 -35 93 -104 93 -120
0 -6 -13 9 -29 34 -31 48 -88 102 -133 125 -15 8 -28 17 -28 20 0 9 60 -27 97
-59z m372 36 c0 -10 -5 -27 -10 -38 -9 -19 -9 -18 -5 2 2 13 0 26 -5 29 -11 6
-2 24 12 24 5 0 9 -8 8 -17z m-6679 -47 c0 -6 -7 -2 -15 8 -8 11 -15 25 -15
30 0 6 7 2 15 -8 8 -11 15 -25 15 -30z m5660 34 c-8 -5 -19 -10 -25 -10 -5 0
-3 5 5 10 8 5 20 10 25 10 6 0 3 -5 -5 -10z m-305 -40 c-9 -41 -17 -33 -9 9 4
17 9 30 11 27 3 -2 2 -19 -2 -36z m1253 -25 c-22 -36 -45 -68 -50 -71 -9 -6
26 54 64 109 36 51 28 27 -14 -38z m-6088 52 c0 -2 -10 -12 -22 -23 l-23 -19
19 23 c18 21 26 27 26 19z m917 -34 c-3 -10 -5 -4 -5 12 0 17 2 24 5 18 2 -7
2 -21 0 -30z m1914 1 c-5 -16 -10 -21 -10 -12 -1 18 10 51 15 45 2 -1 -1 -16
-5 -33z m2269 32 c0 -7 -135 -95 -156 -101 -11 -4 -9 0 6 8 14 8 52 33 85 56
63 42 65 44 65 37z m1167 -28 c-3 -7 -5 -2 -5 12 0 14 2 19 5 13 2 -7 2 -19 0
-25z m-1556 -9 c-5 -13 -10 -19 -10 -12 -1 15 10 45 15 40 3 -2 0 -15 -5 -28z
m-1764 -11 c-3 -7 -5 -2 -5 12 0 14 2 19 5 13 2 -7 2 -19 0 -25z m-3690 -45
c-2 -16 -4 -5 -4 22 0 28 2 40 4 28 2 -13 2 -35 0 -50z m3350 45 c-3 -8 -6 -5
-6 6 -1 11 2 17 5 13 3 -3 4 -12 1 -19z m-2692 -28 c-21 -22 -41 -37 -44 -35
-4 5 68 74 79 75 2 0 -13 -18 -35 -40z m892 -7 c-3 -10 -5 -4 -5 12 0 17 2 24
5 18 2 -7 2 -21 0 -30z m1920 15 c-3 -8 -6 -5 -6 6 -1 11 2 17 5 13 3 -3 4
-12 1 -19z m-3219 -19 c-3 -8 -7 -3 -11 10 -4 17 -3 21 5 13 5 -5 8 -16 6 -23z
m1419 -1 c-3 -7 -5 -2 -5 12 0 14 2 19 5 13 2 -7 2 -19 0 -25z m5210 10 c-3
-8 -6 -5 -6 6 -1 11 2 17 5 13 3 -3 4 -12 1 -19z m150 -10 c-3 -7 -5 -2 -5 12
0 14 2 19 5 13 2 -7 2 -19 0 -25z m-7129 -133 c0 -11 -6 7 -14 40 -7 33 -13
74 -12 90 0 17 6 -1 14 -40 7 -38 13 -79 12 -90z m3659 123 c-3 -8 -6 -5 -6 6
-1 11 2 17 5 13 3 -3 4 -12 1 -19z m-3490 -35 c-3 -10 -5 -2 -5 17 0 19 2 27
5 18 2 -10 2 -26 0 -35z m5353 -8 c-16 -47 -23 -40 -9 9 6 21 13 36 16 33 3
-3 0 -22 -7 -42z m1440 8 c-11 -17 -11 -17 -6 0 3 10 6 24 7 30 0 9 2 9 5 0 3
-7 0 -20 -6 -30z m124 3 c-3 -15 -8 -25 -11 -23 -2 3 -1 17 3 31 3 15 8 25 11
23 2 -3 1 -17 -3 -31z m-6709 -7 c9 -17 15 -33 13 -35 -3 -2 -12 12 -21 31
-21 43 -13 47 8 4z m1298 -39 c3 -30 2 -46 -2 -35 -12 29 -21 109 -11 99 4 -5
10 -34 13 -64z m104 38 c-3 -7 -5 -2 -5 12 0 14 2 19 5 13 2 -7 2 -19 0 -25z
m3859 -9 c-15 -34 -15 -34 -9 -4 7 35 13 48 20 42 2 -3 -3 -20 -11 -38z
m-5349 -6 c-3 -10 -5 -4 -5 12 0 17 2 24 5 18 2 -7 2 -21 0 -30z m357 -35
c-32 -34 -63 -65 -68 -69 -8 -7 -5 -38 9 -84 3 -11 -3 -2 -13 20 -11 22 -17
45 -13 52 10 20 136 150 140 146 3 -2 -22 -31 -55 -65z m2829 27 c5 -28 4 -34
-3 -20 -8 19 -14 73 -6 64 2 -2 6 -22 9 -44z m174 8 c-3 -10 -5 -4 -5 12 0 17
2 24 5 18 2 -7 2 -21 0 -30z m118 -18 c-4 -25 -9 -44 -12 -41 -2 2 -1 25 2 51
4 25 9 44 12 41 2 -2 1 -25 -2 -51z m-166 -5 c0 -10 -3 -8 -9 5 -12 27 -12 43
0 25 5 -8 9 -22 9 -30z m-3492 -7 c-3 -10 -5 -4 -5 12 0 17 2 24 5 18 2 -7 2
-21 0 -30z m6597 -3 c-10 -16 -20 -28 -22 -26 -4 5 28 56 35 56 2 0 -4 -13
-13 -30z m136 0 c-6 -11 -13 -20 -16 -20 -2 0 0 9 6 20 6 11 13 20 16 20 2 0
0 -9 -6 -20z m99 -29 c-7 -23 -14 -39 -16 -37 -3 2 1 23 8 45 7 23 14 39 16
37 3 -2 -1 -23 -8 -45z m114 -4 c-9 -25 -25 -56 -36 -69 l-19 -23 14 25 c8 14
23 46 33 73 10 26 20 46 22 44 2 -2 -4 -24 -14 -50z m-6876 6 c-3 -10 -5 -4
-5 12 0 17 2 24 5 18 2 -7 2 -21 0 -30z m3460 0 c-3 -10 -5 -4 -5 12 0 17 2
24 5 18 2 -7 2 -21 0 -30z m-3227 -8 c0 -5 -5 -3 -10 5 -5 8 -10 20 -10 25 0
6 5 3 10 -5 5 -8 10 -19 10 -25z m5074 -24 c-10 -28 -20 -49 -22 -47 -2 2 5
27 14 55 10 27 20 48 22 46 3 -2 -4 -27 -14 -54z m126 12 c-11 -17 -11 -17 -6
0 3 10 7 26 7 35 1 15 2 15 6 0 2 -10 -1 -25 -7 -35z m1484 13 c-3 -15 -8 -25
-11 -23 -2 3 -1 17 3 31 3 15 8 25 11 23 2 -3 1 -17 -3 -31z m117 7 c-8 -15
-10 -15 -11 -2 0 17 10 32 18 25 2 -3 -1 -13 -7 -23z m-3604 -15 c-3 -7 -5 -2
-5 12 0 14 2 19 5 13 2 -7 2 -19 0 -25z m-3489 -29 c-3 -33 -4 -33 -8 8 -3 23
-2 39 3 34 5 -5 7 -24 5 -42z m179 4 c-3 -10 -5 -2 -5 17 0 19 2 27 5 18 2
-10 2 -26 0 -35z m3202 -12 c1 -35 -5 -22 -12 24 -5 28 -4 34 3 20 5 -11 9
-31 9 -44z m3296 2 c-15 -27 -32 -52 -38 -58 -6 -5 2 13 18 40 15 28 30 53 32
58 2 4 7 7 10 7 2 0 -7 -21 -22 -47z m-3048 0 c-3 -10 -5 -4 -5 12 0 17 2 24
5 18 2 -7 2 -21 0 -30z m2888 -45 c-24 -46 -56 -118 -71 -161 -15 -43 -29 -76
-31 -74 -10 11 82 229 125 294 29 45 20 21 -23 -59z m592 45 c-3 -10 -5 -4 -5
12 0 17 2 24 5 18 2 -7 2 -21 0 -30z m-7029 -33 c0 -9 -3 -7 -8 5 -5 11 -8 29
-8 40 0 16 2 15 8 -5 4 -14 8 -32 8 -40z m241 5 c0 -5 -6 1 -14 15 -8 14 -14
30 -14 35 0 6 6 -1 14 -15 8 -14 14 -29 14 -35z m1248 33 c-3 -8 -6 -5 -6 6
-1 11 2 17 5 13 3 -3 4 -12 1 -19z m1939 -4 c-4 -9 -9 -15 -11 -12 -3 3 -3 13
1 22 4 9 9 15 11 12 3 -3 3 -13 -1 -22z m-1819 -6 c-3 -8 -6 -5 -6 6 -1 11 2
17 5 13 3 -3 4 -12 1 -19z m-1800 -20 c-3 -7 -5 -2 -5 12 0 14 2 19 5 13 2 -7
2 -19 0 -25z m5582 -9 c-7 -19 -16 -38 -20 -44 -5 -5 -2 12 7 38 9 27 18 46
20 44 2 -2 -1 -19 -7 -38z m1322 4 c-12 -20 -14 -14 -5 12 4 9 9 14 11 11 3
-2 0 -13 -6 -23z m-5214 -5 c-3 -8 -6 -5 -6 6 -1 11 2 17 5 13 3 -3 4 -12 1
-19z m5468 -8 c-9 -16 -18 -30 -21 -30 -2 0 2 14 11 30 9 17 18 30 21 30 2 0
-2 -13 -11 -30z m-7188 -32 c-2 -13 -4 -5 -4 17 -1 22 1 32 4 23 2 -10 2 -28
0 -40z m330 30 c-3 -8 -6 -5 -6 6 -1 11 2 17 5 13 3 -3 4 -12 1 -19z m3428
-38 c-4 -28 -9 -49 -12 -47 -2 3 -1 28 3 56 4 28 9 50 11 47 3 -3 2 -28 -2
-56z m3326 33 c-12 -20 -14 -14 -5 12 4 9 9 14 11 11 3 -2 0 -13 -6 -23z
m-3554 -15 c-3 -7 -5 -2 -5 12 0 14 2 19 5 13 2 -7 2 -19 0 -25z m3710 -5 c-3
-10 -5 -4 -5 12 0 17 2 24 5 18 2 -7 2 -21 0 -30z m-7182 -71 c-5 -5 -25 69
-24 88 0 8 7 -7 14 -35 8 -27 12 -51 10 -53z m5416 71 c-8 -15 -10 -15 -11 -2
0 17 10 32 18 25 2 -3 -1 -13 -7 -23z m1489 -37 c33 2 33 1 12 -9 -32 -15 -56
2 -59 39 l-2 29 8 -30 c6 -27 11 -30 41 -29z m53 39 c-3 -9 -8 -14 -10 -11 -3
3 -2 9 2 15 9 16 15 13 8 -4z m-6866 -32 c-3 -10 -5 -4 -5 12 0 17 2 24 5 18
2 -7 2 -21 0 -30z m1580 15 c-3 -8 -6 -5 -6 6 -1 11 2 17 5 13 3 -3 4 -12 1
-19z m-1483 -38 c5 -17 4 -20 -2 -10 -5 8 -13 26 -16 40 -5 17 -4 20 2 10 5
-8 13 -26 16 -40z m259 -17 c14 -35 24 -63 21 -63 -5 0 -37 72 -49 110 -13 43
2 18 28 -47z m6250 32 c-9 -19 -18 -33 -21 -31 -4 5 26 66 33 66 3 0 -3 -16
-12 -35z m354 -5 c9 0 26 8 37 18 21 17 21 17 2 -5 -23 -28 -62 -30 -76 -4
-15 30 -12 38 6 13 8 -12 22 -22 31 -22z m-6770 -17 c-3 -10 -5 -2 -5 17 0 19
2 27 5 18 2 -10 2 -26 0 -35z m1532 -13 c0 -9 -4 -8 -9 5 -5 11 -9 27 -9 35 0
9 4 8 9 -5 5 -11 9 -27 9 -35z m1668 28 c-3 -8 -6 -5 -6 6 -1 11 2 17 5 13 3
-3 4 -12 1 -19z m3690 -10 c-3 -7 -5 -2 -5 12 0 14 2 19 5 13 2 -7 2 -19 0
-25z m-7220 -45 c-2 -16 -4 -5 -4 22 0 28 2 40 4 28 2 -13 2 -35 0 -50z m632
-8 c0 -11 -7 0 -15 25 -17 56 -17 64 1 25 8 -16 14 -39 14 -50z m1110 25 c0
-9 -4 -8 -9 5 -5 11 -9 27 -9 35 0 9 4 8 9 -5 5 -11 9 -27 9 -35z m3704 35
c-3 -9 -8 -14 -10 -11 -3 3 -2 9 2 15 9 16 15 13 8 -4z m118 -12 c-12 -20 -14
-14 -5 12 4 9 9 14 11 11 3 -2 0 -13 -6 -23z m-5414 -25 c-3 -7 -5 -2 -5 12 0
14 2 19 5 13 2 -7 2 -19 0 -25z m3390 -25 c-3 -10 -5 -4 -5 12 0 17 2 24 5 18
2 -7 2 -21 0 -30z m190 0 c-3 -10 -5 -4 -5 12 0 17 2 24 5 18 2 -7 2 -21 0
-30z m1694 10 c-12 -20 -14 -14 -5 12 4 9 9 14 11 11 3 -2 0 -13 -6 -23z
m-5351 -18 c0 -5 -5 -3 -10 5 -5 8 -10 20 -10 25 0 6 5 3 10 -5 5 -8 10 -19
10 -25z m188 10 c-3 -3 -9 2 -12 12 -6 14 -5 15 5 6 7 -7 10 -15 7 -18z m6455
10 c-3 -9 -8 -14 -10 -11 -3 3 -2 9 2 15 9 16 15 13 8 -4z m-6381 -37 c-6 -6
-7 0 -4 19 5 21 7 23 10 9 2 -10 0 -22 -6 -28z m1535 20 c-3 -8 -6 -5 -6 6 -1
11 2 17 5 13 3 -3 4 -12 1 -19z m-108 -38 c0 -9 -4 -8 -9 5 -5 11 -9 27 -9 35
0 9 4 8 9 -5 5 -11 9 -27 9 -35z m3760 -24 c-12 -31 -24 -55 -26 -53 -2 2 6
30 18 61 12 31 24 55 26 53 2 -2 -6 -30 -18 -61z m-130 -8 c-12 -29 -26 -57
-32 -63 -5 -5 -1 8 8 30 9 22 22 53 27 68 6 15 12 26 15 23 2 -2 -6 -28 -18
-58z m1304 42 c-3 -11 -10 -23 -16 -27 -5 -3 -8 -2 -5 3 3 5 8 17 11 27 9 24
16 22 10 -3z m-6686 -37 c-3 -10 -5 -2 -5 17 0 19 2 27 5 18 2 -10 2 -26 0
-35z m110 17 c10 0 25 6 33 13 12 10 12 9 1 -5 -19 -25 -58 -23 -71 5 -10 20
-10 20 3 5 8 -10 23 -18 34 -18z m1772 -20 c0 -9 -4 -8 -9 5 -5 11 -9 27 -9
35 0 9 4 8 9 -5 5 -11 9 -27 9 -35z m1658 18 c-3 -7 -5 -2 -5 12 0 14 2 19 5
13 2 -7 2 -19 0 -25z m170 -5 c-3 -10 -5 -4 -5 12 0 17 2 24 5 18 2 -7 2 -21
0 -30z m3480 5 c-3 -7 -5 -2 -5 12 0 14 2 19 5 13 2 -7 2 -19 0 -25z m-6536
-14 c5 -15 8 -29 5 -31 -2 -2 -8 10 -14 26 -13 38 -5 41 9 5z m1118 -39 c0 -5
-4 -3 -9 5 -5 8 -9 22 -9 30 0 16 17 -16 18 -35z m1778 -12 c-3 -10 -5 -2 -5
17 0 19 2 27 5 18 2 -10 2 -26 0 -35z m3630 25 c-3 -8 -6 -5 -6 6 -1 11 2 17
5 13 3 -3 4 -12 1 -19z m-5268 -68 c0 -23 -15 7 -22 45 l-6 30 14 -30 c8 -16
14 -37 14 -45z m4717 14 c-14 -27 -26 -45 -26 -40 0 12 43 97 47 92 2 -2 -8
-25 -21 -52z m-2931 -9 c-3 -26 -8 -45 -11 -43 -2 3 -1 26 2 52 4 25 9 44 12
42 2 -3 1 -26 -3 -51z m2829 6 c-4 -17 -9 -30 -11 -27 -3 2 -2 19 2 36 9 41
17 33 9 -9z m-5835 -31 c0 -13 -1 -13 -8 0 -5 8 -12 26 -15 40 l-7 25 15 -25
c9 -14 15 -32 15 -40z m1105 0 c5 -17 4 -20 -2 -10 -5 8 -13 26 -16 40 -5 17
-4 20 2 10 5 -8 13 -26 16 -40z m3679 35 c-3 -9 -8 -14 -10 -11 -3 3 -2 9 2
15 9 16 15 13 8 -4z m-1916 -42 c-3 -10 -5 -2 -5 17 0 19 2 27 5 18 2 -10 2
-26 0 -35z m-2988 -8 c0 -5 -4 -3 -9 5 -5 8 -9 22 -9 30 0 16 17 -16 18 -35z
m-552 -2 c-3 -10 -5 -4 -5 12 0 17 2 24 5 18 2 -7 2 -21 0 -30z m5316 22 c-3
-9 -8 -14 -10 -11 -3 3 -2 9 2 15 9 16 15 13 8 -4z m1818 -31 c-5 -21 -9 -30
-10 -19 -1 24 10 67 15 62 3 -2 0 -22 -5 -43z m-1700 9 c-12 -20 -14 -14 -5
12 4 9 9 14 11 11 3 -2 0 -13 -6 -23z m-4732 -72 c12 -35 21 -71 20 -80 0 -13
-22 48 -46 134 -14 47 7 5 26 -54z m4594 49 c-3 -12 -8 -19 -11 -16 -5 6 5 36
12 36 2 0 2 -9 -1 -20z m-4736 -12 c-3 -8 -6 -5 -6 6 -1 11 2 17 5 13 3 -3 4
-12 1 -19z m-550 -20 c-3 -7 -5 -2 -5 12 0 14 2 19 5 13 2 -7 2 -19 0 -25z
m1793 -3 c0 -5 -5 -3 -10 5 -5 8 -10 20 -10 25 0 6 5 3 10 -5 5 -8 10 -19 10
-25z m143 -50 c14 -38 29 -79 33 -90 5 -13 4 -17 -3 -10 -6 6 -25 51 -42 100
-18 50 -28 86 -23 80 5 -5 21 -41 35 -80z m4618 62 c-10 -9 -11 -8 -5 6 3 10
9 15 12 12 3 -3 0 -11 -7 -18z m-1177 -61 c-15 -31 -28 -55 -30 -53 -2 2 8 29
23 60 15 31 28 55 30 53 2 -2 -8 -29 -23 -60z m-1727 32 c-3 -8 -6 -5 -6 6 -1
11 2 17 5 13 3 -3 4 -12 1 -19z m1616 7 c-3 -9 -8 -14 -10 -11 -3 3 -2 9 2 15
9 16 15 13 8 -4z m1271 -7 c-3 -4 -16 -8 -29 -8 -13 0 -26 4 -29 8 -2 4 10 8
29 8 19 0 31 -4 29 -8z m-4714 -72 c-1 -6 -7 4 -15 23 -8 18 -15 38 -15 45 1
6 7 -4 15 -23 8 -18 15 -38 15 -45z m1707 52 c-3 -8 -6 -5 -6 6 -1 11 2 17 5
13 3 -3 4 -12 1 -19z m3570 -10 c-3 -8 -6 -5 -6 6 -1 11 2 17 5 13 3 -3 4 -12
1 -19z m-1854 -8 c-5 -19 -23 -39 -23 -25 0 9 20 45 24 45 2 0 2 -9 -1 -20z
m-1609 -79 c-4 -34 -9 -60 -11 -57 -3 3 -2 32 2 66 4 34 9 59 12 57 2 -3 1
-33 -3 -66z m3450 35 c-3 -15 -8 -25 -11 -23 -2 3 -1 17 3 31 3 15 8 25 11 23
2 -3 1 -17 -3 -31z m-7056 -41 c0 -16 -2 -15 -8 5 -4 14 -8 34 -8 45 0 16 2
15 8 -5 4 -14 8 -34 8 -45z m3489 8 c-3 -10 -5 -2 -5 17 0 19 2 27 5 18 2 -10
2 -26 0 -35z m1689 0 c-8 -15 -15 -25 -16 -21 0 12 23 58 27 54 3 -2 -2 -17
-11 -33z m119 -22 c-21 -43 -29 -39 -8 4 9 19 18 33 21 31 2 -2 -4 -18 -13
-35z m-3475 -11 c0 -13 -1 -13 -10 0 -5 8 -10 22 -10 30 0 13 1 13 10 0 5 -8
10 -22 10 -30z m5211 -17 c-12 -20 -14 -14 -5 12 4 9 9 14 11 11 3 -2 0 -13
-6 -23z m-3554 -30 c-3 -10 -5 -2 -5 17 0 19 2 27 5 18 2 -10 2 -26 0 -35z
m1673 27 c-6 -11 -13 -20 -16 -20 -2 0 0 9 6 20 6 11 13 20 16 20 2 0 0 -9 -6
-20z m-4421 -110 c-1 -8 -7 8 -15 35 -7 28 -13 59 -13 70 0 11 7 -5 14 -35 8
-30 14 -62 14 -70z m-696 15 c4 -25 4 -33 -2 -20 -4 11 -11 38 -14 60 -4 25
-4 33 2 20 4 -11 11 -38 14 -60z m564 43 c-3 -8 -6 -5 -6 6 -1 11 2 17 5 13 3
-3 4 -12 1 -19z m4504 -40 c-17 -29 -31 -50 -31 -46 0 12 54 107 59 103 2 -2
-11 -28 -28 -57z m1910 31 c-5 -13 -10 -19 -10 -12 -1 15 10 45 15 40 3 -2 0
-15 -5 -28z m-3424 -16 c-3 -10 -5 -4 -5 12 0 17 2 24 5 18 2 -7 2 -21 0 -30z
m1663 19 c0 -5 -7 -17 -15 -28 -14 -18 -14 -17 -4 9 12 27 19 34 19 19z
m-1783 -54 c-2 -13 -4 -5 -4 17 -1 22 1 32 4 23 2 -10 2 -28 0 -40z m-2848
-18 c0 -9 -4 -8 -9 5 -5 11 -9 27 -9 35 0 9 4 8 9 -5 5 -11 9 -27 9 -35z
m1265 -10 c5 -17 4 -20 -2 -10 -5 8 -13 26 -16 40 -5 17 -4 20 2 10 5 -8 13
-26 16 -40z m137 -17 c48 -105 60 -133 55 -133 -3 0 -15 21 -27 48 -11 26 -32
71 -45 100 -13 28 -22 52 -19 52 3 0 19 -30 36 -67z m4973 33 c-3 -15 -8 -25
-11 -23 -2 3 -1 17 3 31 3 15 8 25 11 23 2 -3 1 -17 -3 -31z m-1794 -35 c-28
-56 -35 -52 -8 4 12 24 23 43 26 41 2 -2 -6 -22 -18 -45z m-5136 -46 c4 -20 3
-25 -3 -15 -5 8 -11 31 -15 50 -7 41 7 13 18 -35z m673 13 c-2 -13 -4 -5 -4
17 -1 22 1 32 4 23 2 -10 2 -28 0 -40z m-110 20 c-3 -8 -6 -5 -6 6 -1 11 2 17
5 13 3 -3 4 -12 1 -19z m2950 -15 c-3 -10 -5 -4 -5 12 0 17 2 24 5 18 2 -7 2
-21 0 -30z m1481 10 c-7 -16 -19 -39 -28 -53 -9 -14 -24 -42 -35 -62 -11 -21
-21 -36 -23 -33 -2 2 10 27 26 57 16 29 37 68 46 86 20 39 30 43 14 5z m-1604
-72 c-3 -45 -9 -80 -11 -77 -3 3 -2 41 2 86 4 45 9 79 12 76 2 -2 1 -41 -3
-85z m3510 30 c-10 -28 -19 -49 -21 -47 -2 2 3 27 13 55 9 29 18 50 20 48 3
-2 -3 -27 -12 -56z m-5025 -46 c0 -5 -11 10 -24 35 -13 25 -24 50 -24 55 0 6
11 -10 24 -35 13 -25 24 -49 24 -55z m-1302 53 c-3 -8 -6 -5 -6 6 -1 11 2 17
5 13 3 -3 4 -12 1 -19z m4526 -13 c-3 -9 -8 -14 -10 -11 -3 3 -2 9 2 15 9 16
15 13 8 -4z m-4417 -131 c-3 -12 -13 -25 -22 -28 -20 -8 -54 2 -54 15 0 5 9 4
19 -3 35 -21 51 5 53 86 l2 71 3 -60 c2 -32 2 -69 -1 -81z m2821 84 c-2 -13
-4 -5 -4 17 -1 22 1 32 4 23 2 -10 2 -28 0 -40z m-2913 2 c4 -25 3 -31 -4 -20
-5 8 -10 26 -10 39 0 32 6 24 14 -19z m-570 -5 c5 -22 4 -26 -4 -15 -5 8 -10
24 -10 34 0 26 6 18 14 -19z m5056 5 c-6 -11 -13 -20 -16 -20 -2 0 0 9 6 20 6
11 13 20 16 20 2 0 0 -9 -6 -20z m1791 -41 c-5 -13 -10 -19 -10 -12 -1 15 10
45 15 40 3 -2 0 -15 -5 -28z m-4967 -5 c3 -8 2 -12 -4 -9 -6 3 -10 10 -10 16
0 14 7 11 14 -7z m152 -51 c-5 -5 -36 50 -36 64 0 4 9 -7 21 -26 11 -18 18
-35 15 -38z m2992 35 c-8 -13 -30 -50 -48 -83 -18 -33 -39 -67 -48 -75 -13
-12 -13 -10 1 12 9 15 26 44 38 65 11 21 30 55 42 75 11 21 23 36 25 33 3 -2
-2 -15 -10 -27z m-1551 -55 c-2 -16 -4 -3 -4 27 0 30 2 43 4 28 2 -16 2 -40 0
-55z m-2890 45 c-3 -8 -6 -5 -6 6 -1 11 2 17 5 13 3 -3 4 -12 1 -19z m1317
-14 c3 -8 2 -12 -4 -9 -6 3 -10 10 -10 16 0 14 7 11 14 -7z m2976 -5 c-7 -11
-14 -18 -17 -15 -3 3 0 12 7 21 18 21 23 19 10 -6z m1937 -39 c-7 -17 -13 -26
-15 -21 -3 10 15 51 22 51 3 0 -1 -14 -7 -30z m-4851 -88 c-5 -4 -56 92 -56
105 0 4 14 -16 30 -46 17 -30 28 -56 26 -59z m118 31 c20 -37 34 -68 32 -70
-2 -2 -20 28 -40 67 -20 38 -35 70 -32 70 2 0 21 -30 40 -67z m1273 35 c-3 -7
-5 -2 -5 12 0 14 2 19 5 13 2 -7 2 -19 0 -25z m1493 12 c-6 -11 -13 -20 -16
-20 -2 0 0 9 6 20 6 11 13 20 16 20 2 0 0 -9 -6 -20z m-20 -37 c0 -5 -10 -19
-21 -33 l-20 -25 16 33 c15 30 25 41 25 25z m1956 -34 c-9 -19 -15 -29 -16
-22 0 15 22 64 27 60 2 -2 -3 -19 -11 -38z m-6707 -19 c0 -10 -3 -8 -9 5 -12
27 -12 43 0 25 5 -8 9 -22 9 -30z m3388 -12 c-3 -7 -5 -2 -5 12 0 14 2 19 5
13 2 -7 2 -19 0 -25z m-1477 -9 c0 -6 -4 -7 -10 -4 -5 3 -10 11 -10 16 0 6 5
7 10 4 6 -3 10 -11 10 -16z m1357 -71 c-2 -18 -4 -4 -4 32 0 36 2 50 4 33 2
-18 2 -48 0 -65z m1548 28 c-36 -62 -43 -59 -8 3 15 28 29 48 31 46 2 -2 -8
-24 -23 -49z m-4789 8 c8 -20 13 -38 11 -40 -2 -2 -11 14 -20 36 -19 50 -12
53 9 4z m1904 -5 c0 -6 -4 -7 -10 -4 -5 3 -10 11 -10 16 0 6 5 7 10 4 6 -3 10
-11 10 -16z m159 -54 c17 -33 25 -51 16 -40 -19 23 -72 125 -58 110 5 -5 24
-37 42 -70z m2580 35 c-12 -22 -24 -38 -26 -36 -4 4 37 76 44 76 2 0 -6 -18
-18 -40z m-1292 -122 c-2 -29 -3 -8 -3 47 0 55 1 79 3 53 2 -26 2 -71 0 -100z
m3278 99 c-8 -21 -18 -37 -20 -37 -3 0 2 16 10 36 8 20 15 39 15 42 0 3 2 3 5
0 3 -3 -2 -21 -10 -41z m-4675 -52 c0 -11 -14 7 -31 40 -7 13 -3 12 10 -5 11
-14 21 -29 21 -35z m-1926 29 c3 -8 2 -12 -4 -9 -6 3 -10 10 -10 16 0 14 7 11
14 -7z m3203 -146 c-2 -29 -3 -8 -3 47 0 55 1 79 3 53 2 -26 2 -71 0 -100z
m1374 125 c-5 -10 -17 -27 -26 -38 -16 -19 -17 -19 -3 5 26 46 29 50 34 50 3
0 0 -8 -5 -17z m1456 11 c-3 -3 -12 -4 -19 -1 -8 3 -5 6 6 6 11 1 17 -2 13 -5z
m33 -9 c0 -8 -2 -15 -4 -15 -2 0 -6 7 -10 15 -3 8 -1 15 4 15 6 0 10 -7 10
-15z m-67 -20 c-3 -9 -8 -14 -10 -11 -3 3 -2 9 2 15 9 16 15 13 8 -4z m-5949
-70 c15 -33 23 -55 17 -50 -5 6 -22 37 -36 70 -15 33 -22 56 -17 50 5 -5 21
-37 36 -70z m6514 50 c-6 -14 -13 -23 -15 -21 -5 5 15 46 22 46 3 0 -1 -11 -7
-25z m-1894 -32 c-39 -70 -95 -153 -101 -153 -3 0 2 10 10 23 9 12 37 57 62
100 25 42 48 77 51 77 3 0 -6 -21 -22 -47z m-2564 -28 c0 -5 -9 4 -20 20 -11
17 -20 35 -20 40 0 6 9 -3 20 -20 11 -16 20 -34 20 -40z m-122 -17 c18 -32 30
-58 28 -58 -6 0 -76 118 -76 128 0 11 16 -12 48 -70z m2537 25 c-34 -53 -45
-67 -45 -60 0 10 51 87 57 87 3 0 -3 -12 -12 -27z m1452 -25 c-3 -8 -6 -5 -6
6 -1 11 2 17 5 13 3 -3 4 -12 1 -19z m556 5 c-8 -23 -33 -60 -33 -50 0 11 29
67 35 67 2 0 2 -8 -2 -17z m-3216 -65 c-2 -13 -4 -3 -4 22 0 25 2 35 4 23 2
-13 2 -33 0 -45z m-1127 -58 c28 -47 50 -89 50 -94 0 -5 -2 -7 -4 -5 -10 12
-116 202 -115 207 0 9 9 -5 69 -108z m3777 68 c-3 -7 -5 -2 -5 12 0 14 2 19 5
13 2 -7 2 -19 0 -25z m-5852 -43 c15 -27 23 -45 17 -40 -12 12 -52 83 -52 92
0 10 6 1 35 -52z m4333 -7 c-8 -13 -32 -51 -53 -85 -21 -35 -40 -63 -42 -63
-5 0 -2 6 55 98 24 39 46 72 49 72 3 0 -1 -10 -9 -22z m2023 -11 c-10 -9 -11
-8 -5 6 3 10 9 15 12 12 3 -3 0 -11 -7 -18z m-3154 -204 c-1 -43 -3 -10 -3 72
0 83 2 118 3 78 2 -40 2 -107 0 -150z m2640 30 c-2 -37 -3 -9 -3 62 0 72 1
102 3 68 2 -34 2 -93 0 -130z m-3883 130 c15 -25 24 -48 22 -51 -3 -2 -16 19
-30 47 -33 64 -27 67 8 4z m2482 9 c-17 -16 -18 -16 -5 5 7 12 15 20 18 17 3
-2 -3 -12 -13 -22z m1885 -14 c-11 -18 -29 -49 -40 -69 -11 -19 -27 -42 -36
-49 -10 -8 -3 8 15 35 18 28 41 65 52 83 11 17 22 32 25 32 3 0 -4 -15 -16
-32z m-6250 -53 c7 -14 4 -12 -11 5 -11 14 -25 34 -31 45 -7 14 -4 12 11 -5
11 -14 25 -34 31 -45z m4322 -8 c-15 -26 -31 -47 -35 -47 -4 0 7 23 24 50 17
28 33 48 35 46 2 -2 -9 -24 -24 -49z m-3945 -23 c-7 -15 -14 -21 -16 -15 -2 7
2 18 8 26 18 22 21 18 8 -11z m69 -5 c1 -19 1 -20 -4 -4 -3 11 -10 24 -17 28
-7 6 -6 7 4 4 8 -2 16 -14 17 -28z m1628 -9 c22 -42 18 -51 -5 -12 -20 33 -24
42 -15 42 2 0 11 -13 20 -30z m-2025 -22 c19 -24 26 -37 17 -29 -19 15 -61 71
-54 71 2 0 19 -19 37 -42z m1910 -18 l21 -41 -21 -29 c-12 -17 -24 -30 -26
-30 -3 0 4 13 16 30 l21 29 -21 41 c-11 22 -18 40 -15 40 2 0 14 -18 25 -40z
m2188 18 c-59 -94 -61 -98 -55 -156 3 -35 2 -49 -3 -37 -22 53 -2 130 53 203
16 21 20 13 5 -10z m-3802 -35 c-8 -15 -15 -25 -16 -21 0 12 23 58 27 54 3 -2
-2 -17 -11 -33z m3920 9 c-17 -16 -18 -16 -5 5 7 12 15 20 18 17 3 -2 -3 -12
-13 -22z m1875 -19 c-11 -16 -40 -50 -66 -78 -31 -34 -26 -25 17 28 62 77 88
102 49 50z m-5661 -6 c11 -5 9 -6 -4 -4 -11 1 -21 9 -23 17 -3 10 -2 11 4 4 4
-6 15 -14 23 -17z m-300 -81 c48 -31 91 -17 133 44 9 13 17 19 17 13 0 -6 -15
-28 -34 -47 -24 -26 -42 -36 -63 -36 -32 0 -92 39 -133 86 -19 22 -15 20 15
-7 22 -20 51 -43 65 -53z m393 67 c-7 -2 -21 -2 -30 0 -10 3 -4 5 12 5 17 0
24 -2 18 -5z m1537 -11 c0 -17 -69 -106 -70 -91 0 4 13 22 30 40 16 19 30 42
30 52 0 9 2 17 5 17 3 0 5 -8 5 -18z m2120 -17 c-32 -52 -24 -79 25 -86 36 -6
37 -6 8 -8 -46 -2 -63 8 -63 36 0 24 35 93 47 93 2 0 -5 -16 -17 -35z m-3597
18 c-7 -2 -21 -2 -30 0 -10 3 -4 5 12 5 17 0 24 -2 18 -5z m5254 -15 c-3 -8
-6 -5 -6 6 -1 11 2 17 5 13 3 -3 4 -12 1 -19z m-5164 5 c-7 -2 -21 -2 -30 0
-10 3 -4 5 12 5 17 0 24 -2 18 -5z m2284 -15 c-3 -8 -6 -5 -6 6 -1 11 2 17 5
13 3 -3 4 -12 1 -19z m-2199 5 c-10 -2 -26 -2 -35 0 -10 3 -2 5 17 5 19 0 27
-2 18 -5z m100 -10 c-10 -2 -26 -2 -35 0 -10 3 -2 5 17 5 19 0 27 -2 18 -5z
m80 -10 c-10 -2 -26 -2 -35 0 -10 3 -2 5 17 5 19 0 27 -2 18 -5z m125 -10
c-13 -2 -33 -2 -45 0 -13 2 -3 4 22 4 25 0 35 -2 23 -4z m795 0 c-10 -2 -26
-2 -35 0 -10 3 -2 5 17 5 19 0 27 -2 18 -5z m1082 -13 c-6 -11 -13 -20 -16
-20 -2 0 0 9 6 20 6 11 13 20 16 20 2 0 0 -9 -6 -20z m2945 -66 c7 -3 27 2 44
11 17 8 31 13 31 11 0 -7 -56 -36 -70 -36 -15 0 -50 61 -49 85 0 11 7 1 16
-23 8 -24 21 -46 28 -48z m-4617 69 c-21 -2 -55 -2 -75 0 -21 2 -4 4 37 4 41
0 58 -2 38 -4z m489 0 c-20 -2 -52 -2 -70 0 -17 2 0 4 38 4 39 0 53 -2 32 -4z
m1304 -27 c-14 -36 -22 -33 -9 5 6 16 12 28 14 26 3 -2 0 -16 -5 -31z m2669
24 c0 -5 -15 -17 -32 -25 -28 -13 -30 -13 -13 -1 11 8 25 20 30 25 13 13 15
13 15 1z m-4157 -7 c-40 -2 -106 -2 -145 0 -40 1 -8 3 72 3 80 0 112 -2 73 -3z
m604 -19 c3 -9 -2 -38 -12 -63 -9 -25 -17 -54 -17 -63 0 -10 -3 -18 -9 -18
-13 0 -11 13 11 65 28 66 27 85 -8 85 -19 0 -40 -12 -67 -40 -30 -31 -46 -40
-70 -38 l-30 1 31 4 c20 3 45 19 70 44 41 42 89 53 101 23z m733 -24 c-6 -11
-13 -20 -16 -20 -2 0 0 9 6 20 6 11 13 20 16 20 2 0 0 -9 -6 -20z m-943 -18
c-10 -10 -14 -22 -10 -27 5 -4 2 -5 -4 -1 -10 5 -9 13 3 32 9 13 19 22 22 19
3 -3 -2 -13 -11 -23z m292 -7 c-12 -19 -23 -35 -25 -35 -6 0 14 40 29 58 18
23 16 12 -4 -23z m80 -24 c-1 -24 -2 -24 -8 5 -4 17 -11 37 -15 45 -4 8 0 5 8
-5 9 -11 16 -31 15 -45z m3311 49 c-8 -5 -24 -9 -35 -9 -16 1 -16 2 5 9 35 11
48 11 30 0z m-2878 -10 c-17 -4 -42 -20 -55 -36 -12 -16 -37 -45 -55 -64 -19
-19 -10 -6 19 30 61 76 66 80 99 79 21 -1 20 -2 -8 -9z m1728 0 c32 -6 17 -7
-50 -3 -52 3 -97 7 -99 9 -8 7 104 3 149 -6z m-1624 -26 c9 3 12 1 9 -4 -9
-15 -28 -12 -55 11 l-25 21 28 -17 c16 -9 35 -14 43 -11z m154 6 c-6 -11 -13
-20 -16 -20 -2 0 0 9 6 20 6 11 13 20 16 20 2 0 0 -9 -6 -20z m-520 -5 c-7 -8
-17 -15 -22 -15 -6 0 -5 7 2 15 7 8 17 15 22 15 6 0 5 -7 -2 -15z m80 0 c19
-22 8 -25 -12 -3 -10 10 -14 18 -9 18 5 0 14 -7 21 -15z m2088 8 c-15 -2 -42
-2 -60 0 -18 2 -6 4 27 4 33 0 48 -2 33 -4z m869 1 c-3 -3 -12 -4 -19 -1 -8 3
-5 6 6 6 11 1 17 -2 13 -5z m-1464 -56 c13 -25 18 -44 12 -42 -6 3 -18 21 -26
42 -7 20 -16 42 -18 47 -9 25 11 -6 32 -47z m745 45 c-16 -2 -40 -2 -55 0 -16
2 -3 4 27 4 30 0 43 -2 28 -4z m191 -9 c8 -7 -73 -3 -119 6 -34 6 -25 7 35 3
44 -3 82 -7 84 -9z m459 9 c-10 -2 -28 -2 -40 0 -13 2 -5 4 17 4 22 1 32 -1
23 -4z m-2331 -9 c-3 -3 -12 -4 -19 -1 -8 3 -5 6 6 6 11 1 17 -2 13 -5z m2226
-1 c-24 -2 -62 -2 -85 0 -24 2 -5 4 42 4 47 0 66 -2 43 -4z m-2311 -25 c-36
-13 -57 -17 -64 -10 -6 6 -6 12 3 17 8 5 10 4 5 -3 -10 -16 5 -15 45 3 19 8
41 14 49 14 8 0 -9 -9 -38 -21z m196 -50 l73 -73 20 27 c39 53 60 72 28 25
-19 -27 -37 -51 -42 -54 -5 -3 -44 29 -87 71 -43 42 -75 76 -72 76 4 0 40 -33
80 -72z m-821 38 c-39 -27 -85 -52 -76 -43 11 13 94 67 103 67 5 0 -7 -11 -27
-24z m1060 -3 c10 -10 13 -14 7 -10 -7 5 -25 12 -41 17 -23 7 -24 8 -7 9 12 1
30 -7 41 -16z m-1285 -9 c-12 -8 -30 -13 -40 -11 -13 4 -12 5 5 6 12 0 25 6
28 11 3 6 11 10 18 10 6 0 1 -7 -11 -16z m1738 9 c-14 -3 -33 -12 -42 -20 -10
-9 -18 -13 -18 -8 0 15 35 34 60 33 l25 -1 -25 -4z m-1608 -47 c7 4 8 2 4 -4
-14 -22 -26 -12 -25 21 2 30 2 30 6 4 3 -16 9 -25 15 -21z m1358 22 c-11 -13
-30 -36 -43 -52 l-23 -29 -52 38 c-29 20 -52 39 -52 42 0 3 23 -11 50 -31 28
-20 52 -36 55 -36 2 0 18 20 35 45 17 25 35 45 40 45 5 0 0 -10 -10 -22z m113
-22 c16 -18 21 -26 14 -26 -2 0 -19 17 -38 37 -18 20 -25 31 -14 23 11 -8 28
-24 38 -34z m240 9 c21 -10 36 -19 34 -21 -5 -5 -107 44 -107 51 0 3 8 2 18
-3 9 -5 34 -17 55 -27z m-170 -25 c-3 -11 -10 -23 -16 -27 -5 -3 -8 -2 -5 3 3
5 8 17 11 27 9 24 16 22 10 -3z m-1253 -6 c0 -2 -7 -4 -15 -4 -8 0 -15 4 -15
10 0 5 7 7 15 4 8 -4 15 -8 15 -10z"/>
</g>
</svg>
