<?xml version="1.0" standalone="no"?>
<!DOCTYPE svg PUBLIC "-//W3C//DTD SVG 20010904//EN"
 "http://www.w3.org/TR/2001/REC-SVG-20010904/DTD/svg10.dtd">
<svg version="1.0" xmlns="http://www.w3.org/2000/svg"
 width="1077.000000pt" height="1280.000000pt" viewBox="0 0 1077.000000 1280.000000"
 preserveAspectRatio="xMidYMid meet">

<g transform="translate(0.000000,1280.000000) scale(0.100000,-0.100000)"
fill="#000000" stroke="none">
<path d="M3583 12404 c-50 -38 -85 -74 -131 -134 -15 -19 -30 -37 -33 -40 -3
-3 -26 -34 -50 -70 -24 -36 -46 -67 -49 -70 -3 -3 -15 -21 -27 -40 -11 -19
-40 -66 -63 -105 -147 -238 -337 -641 -451 -957 -96 -266 -160 -476 -217 -708
-64 -260 -105 -461 -131 -645 -63 -438 -78 -621 -87 -1080 l-6 -320 -43 -95
c-51 -113 -109 -267 -131 -347 -38 -137 -48 -179 -89 -373 -24 -113 -57 -257
-74 -320 -17 -63 -34 -126 -37 -140 -4 -14 -10 -29 -14 -35 -4 -5 -10 -23 -14
-40 -4 -16 -22 -70 -41 -120 -99 -269 -136 -383 -166 -500 -29 -119 -32 -144
-33 -290 -1 -163 4 -199 47 -335 74 -236 276 -547 531 -815 l76 -80 0 -65 c0
-59 -14 -178 -39 -335 -19 -122 -101 -395 -158 -530 -62 -146 -85 -193 -199
-420 l-122 -240 -58 -21 c-138 -48 -222 -106 -377 -258 -54 -53 -102 -96 -107
-96 -5 0 -42 69 -84 152 -83 170 -133 238 -173 238 -17 0 -43 16 -74 45 -80
74 -134 70 -175 -13 -11 -24 -32 -53 -45 -65 -115 -102 -134 -371 -58 -827 35
-211 36 -215 87 -410 95 -359 214 -649 360 -874 115 -179 250 -296 339 -296
54 0 95 20 148 71 l40 39 150 -20 c398 -54 988 -90 1175 -72 96 9 124 3 114
-22 -3 -8 6 -26 19 -42 21 -24 33 -28 97 -33 73 -6 74 -6 82 -38 6 -23 16 -35
34 -39 29 -7 119 3 144 16 12 7 20 1 34 -25 32 -59 71 -56 198 18 37 21 71 36
76 33 6 -3 13 -21 16 -41 8 -40 38 -65 79 -65 37 0 103 46 159 111 l45 53 34
-18 c19 -9 50 -25 69 -36 44 -25 96 -25 162 0 29 11 61 20 70 20 10 0 52 -34
95 -75 69 -65 83 -74 116 -75 32 0 44 7 87 52 55 58 45 59 150 -7 69 -45 95
-44 141 1 l38 37 49 -37 c73 -53 97 -49 159 32 l18 23 60 -27 c83 -38 142 -42
179 -13 28 22 28 25 23 86 l-6 64 87 -6 c48 -3 143 -10 212 -16 396 -30 753
-37 929 -19 99 11 174 29 258 62 l52 21 27 -26 c42 -42 84 -51 151 -32 48 14
68 28 128 88 39 40 82 87 95 105 14 19 31 40 38 47 19 21 129 209 172 295 143
283 284 679 369 1030 106 442 120 761 37 839 -15 15 -26 39 -31 69 -8 56 -55
112 -93 112 -32 0 -78 -29 -124 -77 -20 -21 -58 -59 -85 -85 -26 -26 -73 -84
-103 -127 -30 -44 -60 -80 -66 -81 -5 0 -23 17 -39 37 -82 110 -252 193 -392
193 -48 0 -54 3 -68 30 -23 44 -18 84 24 200 l37 105 65 32 c35 18 78 37 94
42 17 5 80 28 140 51 121 46 298 110 475 172 63 22 125 46 138 54 26 17 29 58
8 125 -8 24 -31 105 -51 179 -37 135 -141 497 -197 685 -44 147 -84 281 -107
358 -24 80 -20 97 22 97 17 0 104 4 192 10 287 18 343 19 935 26 376 4 590 10
598 17 14 11 72 95 72 103 0 3 9 18 19 33 62 87 378 693 444 853 17 40 129
294 152 343 65 139 253 612 323 810 70 199 79 242 58 270 -13 18 -24 20 -138
17 -376 -8 -961 -77 -1333 -158 -38 -8 -113 -24 -165 -35 -233 -47 -615 -149
-860 -229 -30 -10 -100 -32 -155 -50 -55 -17 -113 -37 -130 -45 -16 -7 -70
-27 -120 -43 -139 -47 -496 -191 -571 -230 -45 -23 -124 -55 -128 -51 -2 2 -9
81 -15 174 -16 240 -64 523 -121 715 -13 44 -4 52 80 78 36 11 128 44 205 72
77 28 158 57 180 64 34 11 199 76 270 106 11 5 61 25 110 46 504 208 1051 477
1455 717 47 28 94 55 105 61 142 79 433 283 611 428 159 128 331 339 308 376
-17 27 -74 50 -154 63 -116 18 -595 6 -810 -20 -179 -22 -205 -25 -420 -61
-177 -30 -506 -98 -620 -129 -19 -6 -60 -17 -90 -25 -30 -9 -116 -32 -190 -52
-139 -37 -492 -151 -615 -199 -492 -190 -741 -308 -1122 -531 -51 -30 -96 -54
-100 -54 -4 0 -55 20 -113 43 -175 73 -473 153 -730 197 -123 21 -278 41 -480
62 -255 27 -837 14 -1013 -22 -20 -4 -40 -4 -42 1 -3 5 1 46 10 91 57 293 92
660 136 1398 15 264 26 1142 17 1420 -10 315 -31 445 -80 497 -29 31 -49 29
-105 -13z m73 -1423 c-9 -395 -15 -558 -27 -706 -5 -71 -14 -197 -19 -280 -11
-168 -25 -330 -40 -450 -6 -44 -15 -120 -20 -170 -13 -108 -36 -234 -60 -330
l-18 -70 -53 -18 c-30 -9 -70 -22 -89 -28 -72 -23 -177 -77 -184 -94 -4 -11
-1 -24 8 -33 12 -12 38 -8 197 31 368 91 569 113 979 103 151 -3 311 -10 355
-15 44 -5 123 -15 175 -21 108 -12 387 -57 440 -70 19 -5 91 -23 160 -40 131
-33 388 -116 404 -131 5 -5 -15 -34 -50 -69 -32 -33 -69 -78 -82 -99 -21 -36
-22 -40 -6 -55 15 -16 18 -16 43 0 14 10 32 24 40 31 33 33 171 129 279 194
402 243 810 433 1287 600 66 23 129 45 140 50 122 50 743 212 1030 267 271 53
374 67 387 54 8 -8 11 -69 12 -194 0 -156 -3 -196 -22 -272 -21 -83 -76 -229
-94 -251 -5 -5 -22 -31 -37 -56 -20 -32 -44 -54 -77 -71 -27 -14 -119 -59
-204 -102 -85 -42 -164 -82 -175 -88 -11 -7 -38 -21 -60 -31 -203 -98 -303
-145 -445 -207 -91 -39 -183 -80 -205 -90 -61 -28 -463 -182 -620 -238 -235
-83 -322 -110 -515 -158 -71 -18 -96 -34 -87 -58 9 -22 66 -29 159 -19 46 6
88 8 93 6 11 -4 54 -155 79 -283 57 -277 80 -669 56 -950 -5 -58 -14 -206 -19
-330 -33 -689 -57 -877 -141 -1110 -57 -156 -157 -338 -232 -420 -13 -14 -41
-46 -63 -71 -56 -64 -165 -156 -264 -223 -96 -64 -298 -164 -383 -190 -62 -19
-82 -35 -72 -60 9 -22 86 -21 172 3 246 68 517 251 684 464 34 42 67 76 72 74
6 -2 14 -46 17 -98 11 -155 86 -512 170 -804 35 -121 150 -455 191 -555 22
-52 40 -102 41 -109 1 -11 -20 -21 -68 -33 -38 -10 -108 -36 -154 -58 -137
-66 -254 -194 -196 -216 8 -3 42 12 76 35 88 59 194 107 289 132 68 17 104 20
204 17 118 -3 125 -4 198 -41 53 -26 91 -54 127 -93 61 -67 71 -96 46 -138
-91 -158 -177 -367 -198 -483 -12 -62 50 -70 74 -10 67 167 196 406 326 604
74 113 101 139 89 85 -3 -15 -11 -52 -16 -82 -6 -30 -15 -66 -20 -80 -36 -104
-62 -201 -57 -214 10 -26 44 -18 70 17 34 44 71 121 95 194 21 62 49 239 49
300 0 34 19 67 34 57 30 -18 -17 -312 -78 -488 -18 -52 -21 -72 -12 -82 16
-19 43 -17 61 4 18 20 71 121 93 177 16 40 16 40 11 -55 -3 -52 -13 -129 -21
-170 -27 -131 -64 -293 -80 -350 -8 -30 -17 -66 -21 -80 -40 -159 -147 -468
-208 -605 -8 -16 -24 -52 -36 -80 -70 -156 -165 -328 -244 -435 -55 -76 -159
-176 -192 -184 -68 -17 -83 48 -85 354 -1 124 -4 233 -6 243 -3 10 -14 17 -28
17 -19 0 -26 -9 -38 -47 -31 -98 -39 -178 -35 -341 l3 -164 -39 -20 c-52 -27
-126 -45 -238 -59 -127 -16 -616 -5 -923 21 -132 11 -263 20 -292 20 -28 0
-58 3 -67 6 -31 12 -16 59 60 184 42 69 85 141 96 160 11 19 26 42 32 50 7 8
52 83 100 165 49 83 101 172 117 198 16 27 29 50 29 52 0 2 23 43 51 92 163
282 381 775 461 1041 64 216 109 458 94 515 -9 39 -53 38 -62 0 -68 -296 -193
-682 -294 -908 -12 -27 -28 -63 -35 -80 -16 -38 -221 -451 -240 -485 -62 -110
-100 -178 -110 -195 -6 -11 -51 -87 -100 -169 -101 -168 -94 -156 -229 -376
-94 -154 -98 -164 -94 -208 3 -26 19 -77 36 -113 18 -37 32 -70 32 -73 0 -13
-32 -5 -87 24 -31 16 -67 30 -80 30 -21 0 -52 -34 -66 -72 -9 -27 -21 -22 -77
27 -28 25 -58 45 -66 45 -15 0 -22 -7 -76 -74 l-24 -28 -34 24 c-19 13 -55 38
-79 56 -58 42 -83 41 -118 -4 -15 -20 -38 -48 -49 -63 l-22 -26 -81 78 c-52
49 -89 77 -103 77 -13 0 -51 -10 -85 -22 -35 -12 -65 -19 -68 -16 -3 3 7 27
23 54 47 81 52 106 53 288 1 245 27 668 48 795 5 31 12 92 16 136 3 44 12 123
20 175 8 52 19 136 25 185 19 146 88 534 121 677 43 187 64 273 84 346 17 66
15 82 -15 82 -64 0 -175 -334 -235 -706 -16 -100 -29 -123 -39 -67 -4 21 -11
52 -16 68 -5 17 -19 67 -30 112 -39 155 -100 307 -128 322 -44 22 -52 -11 -27
-112 35 -141 96 -421 122 -557 33 -175 36 -317 10 -530 -42 -344 -56 -538 -62
-873 l-4 -217 -31 -58 c-48 -88 -53 -91 -100 -64 -67 38 -71 37 -155 -67 -27
-33 -56 -61 -62 -61 -9 0 -13 17 -13 50 0 37 -5 55 -20 70 -28 28 -40 26 -116
-26 -70 -48 -130 -84 -140 -84 -4 0 -3 28 0 63 12 106 -33 132 -76 43 -21 -45
-40 -60 -90 -70 -33 -8 -34 -2 -8 59 28 66 27 85 -8 85 -19 0 -40 -12 -67 -40
-35 -36 -44 -40 -87 -40 -26 0 -48 3 -48 7 0 8 38 57 79 103 48 54 42 73 -149
410 -131 232 -287 541 -346 685 -64 158 -75 187 -126 335 -102 296 -187 695
-204 955 -3 39 -9 126 -15 195 -6 69 -15 184 -19 255 -4 72 -11 138 -15 147
-10 25 -42 22 -57 -4 -21 -38 -23 -395 -4 -589 19 -193 53 -417 66 -441 6 -10
10 -30 10 -45 0 -15 7 -53 15 -85 8 -32 22 -86 31 -120 47 -185 115 -383 223
-655 50 -127 232 -483 374 -733 39 -69 83 -151 99 -183 l29 -58 -25 -33 c-23
-30 -31 -34 -96 -40 -317 -29 -738 -10 -1265 59 -66 8 -125 17 -131 19 -6 3
-15 26 -19 53 -4 26 -12 51 -17 54 -20 13 -47 -3 -59 -34 -80 -207 -143 -227
-272 -87 -253 275 -476 863 -567 1498 -18 126 -30 416 -17 428 2 2 9 -35 16
-83 17 -117 40 -220 58 -263 33 -78 36 -81 62 -78 32 4 32 18 8 193 -28 210
-40 368 -33 438 8 75 18 80 52 29 18 -26 22 -51 27 -169 9 -243 68 -463 125
-471 31 -5 35 14 22 99 -6 41 -17 139 -25 219 -8 80 -17 162 -21 183 -4 24 -2
37 6 37 25 0 237 -498 296 -695 8 -27 19 -59 24 -70 15 -33 50 -159 100 -360
50 -200 66 -230 97 -190 23 30 9 199 -29 355 -27 112 -101 347 -133 425 -7 17
-26 68 -43 114 l-30 83 41 46 c97 104 126 133 202 197 152 127 309 180 454
155 80 -14 181 -52 241 -92 32 -22 48 -28 60 -21 29 19 21 41 -37 98 -67 66
-137 101 -242 121 -41 8 -77 17 -80 20 -3 3 45 105 106 227 136 269 178 363
236 538 69 205 120 427 136 592 5 48 11 90 14 93 3 4 40 -22 82 -57 219 -183
418 -318 590 -400 171 -82 252 -100 243 -52 -3 14 -269 186 -310 200 -10 3
-18 9 -18 14 0 5 -5 9 -11 9 -5 0 -56 32 -112 72 -318 223 -576 462 -766 707
-64 81 -201 283 -201 294 0 3 31 7 69 11 330 33 533 470 374 806 -40 83 -133
184 -202 220 -59 30 -147 50 -218 50 -70 0 -74 5 -48 62 77 174 187 546 245
833 87 431 185 693 351 939 41 60 79 117 84 125 19 31 70 96 78 99 4 2 12 13
18 24 13 24 -4 48 -33 48 -22 0 -153 -122 -190 -176 -13 -19 -27 -34 -32 -34
-24 0 27 902 59 1036 2 11 7 45 10 75 31 301 187 952 316 1312 24 68 37 90 79
129 103 97 271 192 425 243 93 30 282 59 309 46 5 -2 6 -118 2 -280z m6740
-3378 c-7 -29 -60 -182 -76 -218 -5 -11 -27 -67 -49 -125 -149 -389 -338 -823
-519 -1190 -97 -199 -238 -457 -319 -587 l-45 -73 -377 0 c-360 -1 -529 -6
-1036 -30 -306 -15 -393 -24 -413 -43 -18 -19 -16 -32 43 -227 20 -69 43 -145
50 -170 7 -25 30 -101 50 -170 62 -210 185 -639 213 -740 34 -129 34 -141 -3
-152 -16 -5 -39 -13 -50 -18 -11 -5 -54 -20 -95 -35 -400 -141 -465 -165 -582
-214 -120 -51 -137 -66 -164 -144 -25 -76 -30 -85 -43 -71 -15 16 -141 412
-141 444 0 16 5 30 10 30 6 0 93 40 193 89 100 49 212 103 248 120 89 41 96
60 54 143 -40 79 -228 356 -431 633 -8 11 -41 56 -72 101 -32 44 -68 91 -80
105 -26 27 -26 34 5 144 62 220 95 502 108 935 3 102 12 268 20 370 8 102 16
203 17 224 2 22 9 42 18 47 133 72 575 250 905 364 165 57 246 82 525 165 70
20 332 88 390 100 19 4 89 20 155 34 162 36 285 59 505 95 308 51 668 88 864
90 l128 1 -6 -27z m-8261 -1244 c108 -62 165 -134 197 -247 64 -234 -54 -502
-251 -567 -80 -26 -201 -5 -201 36 0 8 -4 19 -9 25 -6 5 -22 50 -36 99 -33
110 -45 306 -25 419 17 100 48 216 61 232 33 40 196 42 264 3z m4621 -1467
c251 -343 476 -673 478 -700 1 -12 -56 -46 -204 -119 -113 -56 -212 -101 -220
-100 -17 3 -46 107 -90 327 -45 225 -60 346 -60 488 0 131 11 185 35 176 7 -3
34 -35 61 -72z"/>
<path d="M2741 7659 c-167 -33 -312 -176 -355 -350 -28 -113 -17 -199 40 -316
146 -300 575 -315 760 -27 67 105 93 255 63 369 -58 225 -283 368 -508 324z
m224 -133 c77 -33 111 -155 63 -226 -39 -57 -72 -75 -138 -75 -52 1 -63 5 -91
30 -70 66 -77 164 -17 235 41 47 119 62 183 36z"/>
<path d="M5402 7514 c-133 -29 -252 -124 -312 -249 -30 -63 -34 -81 -38 -178
-4 -93 -2 -115 18 -170 73 -202 262 -322 479 -303 190 16 346 150 397 341 67
246 -98 506 -353 560 -81 17 -108 17 -191 -1z m166 -131 c45 -34 65 -69 69
-125 7 -103 -62 -172 -167 -166 -95 7 -145 59 -145 154 0 51 4 66 29 98 16 21
43 44 60 52 41 19 120 12 154 -13z"/>
<path d="M3740 6932 c-18 -15 -21 -24 -15 -51 10 -45 74 -111 109 -111 51 0
133 56 149 101 20 58 -184 109 -243 61z"/>
<path d="M3741 6575 c-59 -18 -215 -88 -219 -97 -2 -5 -9 -8 -15 -8 -5 0 -60
-24 -121 -52 -111 -53 -111 -53 -211 -53 -88 0 -107 3 -159 28 -142 66 -119
-37 25 -112 51 -26 54 -30 61 -77 28 -184 81 -411 138 -589 163 -512 367 -845
583 -951 161 -79 316 -35 486 139 175 178 330 482 428 837 37 135 93 441 93
510 0 37 3 42 48 67 26 14 62 44 80 66 30 36 31 42 17 56 -13 13 -20 14 -48 2
-134 -54 -175 -65 -272 -69 -92 -4 -106 -2 -185 27 -46 17 -173 79 -281 136
-289 154 -345 172 -448 140z m245 -157 c60 -30 180 -92 267 -136 193 -99 235
-113 362 -121 l100 -6 -3 -60 c-2 -33 -12 -112 -23 -175 -91 -511 -317 -968
-559 -1131 -71 -47 -138 -63 -206 -48 -204 46 -426 403 -599 963 -42 134 -42
143 4 283 35 106 79 202 138 299 l43 71 122 56 c159 71 146 67 199 63 33 -2
80 -20 155 -58z m-664 -154 c3 -3 -7 -28 -23 -57 -16 -29 -29 -59 -29 -68 0
-9 -8 -27 -19 -40 l-18 -23 -13 71 c-7 39 -10 78 -7 86 7 19 96 45 109 31z"/>
<path d="M5989 6239 c-124 -29 -249 -111 -319 -209 -37 -52 -80 -149 -91 -204
-61 -308 133 -593 443 -651 93 -17 157 -12 261 21 213 69 365 280 366 510 2
242 -155 449 -402 529 -52 16 -197 19 -258 4z m272 -125 c100 -39 193 -123
239 -214 52 -103 53 -260 2 -372 -40 -88 -121 -169 -211 -211 -57 -28 -79 -32
-165 -35 -82 -3 -108 0 -160 18 -98 36 -165 89 -220 175 -63 97 -83 187 -67
298 22 154 140 297 285 346 92 31 211 29 297 -5z"/>
</g>
</svg>
